<svg width="56" height="56" viewBox="0 0 56 56" fill="none" xmlns="http://www.w3.org/2000/svg">
<rect width="56" height="56" rx="4" fill="var(--surface--00)"/>
<rect width="40" height="40" transform="translate(8 8)" fill="var(--surface--00)"/>
<g clip-path="url(#clip0_252_4591)">
<path d="M16 28C16 34.6286 21.3714 40 28 40C34.6286 40 40 34.6286 40 28C40 21.3714 34.6286 16 28 16C21.3714 16 16 21.3714 16 28ZM17.2245 27.9864C17.2327 22.0354 22.0626 17.2163 28.0136 17.2245C33.9646 17.2327 38.7837 22.0626 38.7755 28.0136C38.7673 33.9646 33.9456 38.7755 28 38.7755C22.0544 38.7755 17.2218 33.9429 17.2245 27.9891V27.9864Z" fill="var(--item--01)"/>
<path d="M35.4829 28C35.4824 27.5078 35.3437 27.0256 35.0824 26.6085C34.8212 26.1913 34.448 25.856 34.0053 25.6408C34.2188 25.1308 34.2758 24.5688 34.1689 24.0263C34.0621 23.4839 33.7963 22.9855 33.4053 22.5945C33.0144 22.2036 32.516 21.9377 31.9735 21.8309C31.431 21.7241 30.8691 21.781 30.3591 21.9945C30.1439 21.5519 29.8086 21.1787 29.3914 20.9177C28.9742 20.6566 28.492 20.5182 27.9999 20.5182C27.5077 20.5182 27.0255 20.6566 26.6083 20.9177C26.1912 21.1787 25.8558 21.5519 25.6407 21.9945C25.1307 21.781 24.5687 21.7241 24.0262 21.8309C23.4838 21.9377 22.9854 22.2036 22.5944 22.5945C22.2035 22.9855 21.9377 23.4839 21.8308 24.0263C21.724 24.5688 21.7809 25.1308 21.9944 25.6408C21.5518 25.8559 21.1787 26.1913 20.9176 26.6084C20.6565 27.0256 20.5181 27.5078 20.5181 28C20.5181 28.4921 20.6565 28.9743 20.9176 29.3915C21.1787 29.8087 21.5518 30.144 21.9944 30.3592C21.7809 30.8692 21.724 31.4311 21.8308 31.9736C21.9377 32.5161 22.2035 33.0145 22.5944 33.4054C22.9854 33.7964 23.4838 34.0622 24.0262 34.169C24.5687 34.2759 25.1307 34.2189 25.6407 34.0054C25.8558 34.448 26.1912 34.8212 26.6083 35.0823C27.0255 35.3433 27.5077 35.4818 27.9999 35.4818C28.492 35.4818 28.9742 35.3433 29.3914 35.0823C29.8086 34.8212 30.1439 34.448 30.3591 34.0054C30.8691 34.2189 31.431 34.2759 31.9735 34.169C32.516 34.0622 33.0144 33.7964 33.4053 33.4054C33.7963 33.0145 34.0621 32.5161 34.1689 31.9736C34.2758 31.4311 34.2188 30.8692 34.0053 30.3592C34.448 30.1439 34.8212 29.8086 35.0824 29.3915C35.3437 28.9743 35.4824 28.4922 35.4829 28ZM32.906 23.0938C33.2037 23.3933 33.4034 23.7761 33.4787 24.1915C33.554 24.607 33.5014 25.0355 33.3278 25.4204C33.1734 25.392 33.0167 25.3775 32.8597 25.3768C32.2667 25.3761 31.6982 25.1402 31.2789 24.7209C30.8596 24.3016 30.6237 23.7331 30.623 23.1401C30.6224 22.9831 30.6078 22.8265 30.5795 22.6721C30.9643 22.4985 31.3929 22.4458 31.8083 22.5212C32.2238 22.5965 32.6066 22.7962 32.906 23.0938ZM30.223 33.1211C30.1337 33.0555 30.0491 32.9836 29.9699 32.9061C29.4474 32.3837 28.7388 32.0902 27.9999 32.0902C27.261 32.0902 26.5523 32.3837 26.0298 32.9061C25.9506 32.9836 25.8661 33.0555 25.7767 33.1211C25.7657 33.0344 25.7603 32.9472 25.7604 32.8598C25.7597 32.1651 25.4834 31.499 24.9921 31.0077C24.5009 30.5165 23.8348 30.2401 23.14 30.2394C23.0527 30.2396 22.9654 30.2341 22.8788 30.2231C22.9444 30.1338 23.0162 30.0492 23.0938 29.97C23.6162 29.4475 23.9097 28.7389 23.9097 28C23.9097 27.2611 23.6162 26.5524 23.0938 26.0299C23.0162 25.9507 22.9444 25.8662 22.8788 25.7768C22.9654 25.7658 23.0527 25.7604 23.14 25.7605C23.8348 25.7598 24.5009 25.4835 24.9921 24.9922C25.4834 24.501 25.7597 23.8349 25.7604 23.1401C25.7603 23.0528 25.7657 22.9655 25.7767 22.8789C25.8661 22.9445 25.9506 23.0163 26.0298 23.0938C26.5523 23.6163 27.261 23.9098 27.9999 23.9098C28.7388 23.9098 29.4474 23.6163 29.9699 23.0938C30.0491 23.0163 30.1337 22.9445 30.223 22.8789C30.234 22.9655 30.2395 23.0528 30.2393 23.1401C30.2401 23.8349 30.5164 24.501 31.0076 24.9922C31.4989 25.4835 32.165 25.7598 32.8597 25.7605C32.9471 25.7604 33.0343 25.7658 33.121 25.7768C33.0554 25.8662 32.9835 25.9507 32.906 26.0299C32.3836 26.5524 32.0901 27.2611 32.0901 28C32.0901 28.7389 32.3836 29.4475 32.906 29.97C32.9835 30.0492 33.0554 30.1338 33.121 30.2231C33.0343 30.2341 32.9471 30.2396 32.8597 30.2394C32.165 30.2401 31.4989 30.5165 31.0076 31.0077C30.5164 31.499 30.2401 32.1651 30.2393 32.8598C30.2395 32.9472 30.234 33.0344 30.223 33.1211ZM27.9999 20.9006C28.4209 20.9007 28.8334 21.0194 29.1901 21.2432C29.5467 21.467 29.833 21.7868 30.0162 22.166C29.816 22.2851 29.6314 22.4286 29.4665 22.5932C29.0773 22.9817 28.5498 23.1998 27.9999 23.1998C27.4499 23.1998 26.9225 22.9817 26.5332 22.5932C26.3683 22.4286 26.1837 22.2851 25.9836 22.166C26.1667 21.7868 26.453 21.467 26.8097 21.2432C27.1663 21.0194 27.5788 20.9007 27.9999 20.9006ZM23.0938 23.0938C23.3932 22.7962 23.776 22.5965 24.1914 22.5212C24.6069 22.4458 25.0354 22.4985 25.4203 22.6721C25.3919 22.8265 25.3774 22.9831 25.3767 23.1401C25.376 23.7331 25.1401 24.3016 24.7208 24.7209C24.3015 25.1402 23.733 25.3761 23.14 25.3768C22.983 25.3775 22.8264 25.392 22.672 25.4204C22.4984 25.0355 22.4457 24.607 22.5211 24.1915C22.5964 23.7761 22.7961 23.3933 23.0938 23.0938ZM20.9006 28C20.9006 27.5789 21.0193 27.1664 21.2431 26.8098C21.4669 26.4531 21.7867 26.1668 22.1659 25.9836C22.285 26.1838 22.4285 26.3684 22.5931 26.5333C22.9816 26.9225 23.1998 27.45 23.1998 28C23.1998 28.5499 22.9816 29.0774 22.5931 29.4666C22.4285 29.6315 22.285 29.8161 22.1659 30.0163C21.7867 29.8331 21.4669 29.5468 21.2431 29.1902C21.0193 28.8335 20.9006 28.421 20.9006 28ZM23.0938 32.9061C22.7961 32.6066 22.5964 32.2239 22.5211 31.8084C22.4457 31.393 22.4984 30.9644 22.672 30.5796C22.8264 30.6079 22.983 30.6225 23.14 30.6231C23.733 30.6238 24.3015 30.8597 24.7208 31.279C25.1401 31.6983 25.376 32.2668 25.3767 32.8598C25.3774 33.0168 25.3919 33.1734 25.4203 33.3279C25.0354 33.5015 24.6069 33.5541 24.1914 33.4788C23.776 33.4035 23.3932 33.2038 23.0938 32.9061ZM27.9999 35.0993C27.5788 35.0993 27.1663 34.9805 26.8097 34.7567C26.453 34.5329 26.1667 34.2131 25.9836 33.834C26.1837 33.7148 26.3683 33.5713 26.5332 33.4068C26.9225 33.0183 27.4499 32.8001 27.9999 32.8001C28.5498 32.8001 29.0773 33.0183 29.4665 33.4068C29.6314 33.5713 29.816 33.7148 30.0162 33.834C29.833 34.2131 29.5467 34.5329 29.1901 34.7567C28.8334 34.9805 28.4209 35.0993 27.9999 35.0993ZM32.906 32.9061C32.6066 33.2038 32.2238 33.4035 31.8083 33.4788C31.3929 33.5541 30.9643 33.5015 30.5795 33.3279C30.6078 33.1734 30.6224 33.0168 30.623 32.8598C30.6237 32.2668 30.8596 31.6983 31.2789 31.279C31.6982 30.8597 32.2667 30.6238 32.8597 30.6231C33.0167 30.6225 33.1734 30.6079 33.3278 30.5796C33.5014 30.9644 33.554 31.393 33.4787 31.8084C33.4034 32.2239 33.2037 32.6066 32.906 32.9061ZM33.8339 30.0163C33.7147 29.8161 33.5712 29.6315 33.4067 29.4666C33.0182 29.0774 32.8 28.5499 32.8 28C32.8 27.45 33.0182 26.9225 33.4067 26.5333C33.5712 26.3684 33.7147 26.1838 33.8339 25.9836C34.213 26.1668 34.5327 26.4532 34.7565 26.8098C34.9802 27.1665 35.0989 27.579 35.0989 28C35.0989 28.421 34.9802 28.8335 34.7565 29.1901C34.5327 29.5468 34.213 29.8331 33.8339 30.0163Z" fill="var(--item--01)"/>
</g>
<defs>
<clipPath id="clip0_252_4591">
<rect width="24" height="24" fill="var(--surface--00)" transform="translate(16 16)"/>
</clipPath>
</defs>
</svg>
