<svg width="56" height="56" viewBox="0 0 56 56" fill="none" xmlns="http://www.w3.org/2000/svg">
<rect width="56" height="56" rx="4" fill="var(--surface--00)"/>
<rect width="40" height="40" transform="translate(8 8)" fill="var(--surface--00)"/>
<path fill-rule="evenodd" clip-rule="evenodd" d="M35.75 16.3H20.25C17.9 16.3 16 18.2 16 20.55V35.45C16 37.8 17.9 39.7 20.25 39.7H35.75C38.1 39.7 40 37.8 40 35.45V20.55C40 18.2 38.1 16.3 35.75 16.3ZM25.64 30.3H21.92L21.16 32.66C21.14 32.75 21.06 32.81 20.97 32.8H19.09C18.98 32.8 18.95 32.74 18.98 32.62L22.2 23.39C22.23 23.29 22.26 23.2 22.3 23.08L22.3 23.08C22.34 22.87 22.36 22.65 22.36 22.43C22.35 22.38 22.39 22.33 22.44 22.32H22.47H25.03C25.1 22.32 25.15 22.35 25.16 22.4L28.81 32.6C28.84 32.71 28.81 32.76 28.71 32.76H26.62C26.55 32.77 26.48 32.72 26.46 32.65L25.64 30.25V30.3ZM22.5 28.31H25.04C24.98 28.1 24.9 27.85 24.81 27.59C24.72 27.32 24.63 27.03 24.54 26.73C24.49 26.575 24.4425 26.4225 24.395 26.27L24.3949 26.2697C24.3475 26.1173 24.3 25.9649 24.25 25.81C24.15 25.5 24.06 25.21 23.98 24.92C23.9446 24.7961 23.9112 24.6761 23.8788 24.5601L23.8788 24.56C23.8381 24.4138 23.799 24.2738 23.76 24.14H23.74C23.65 24.57 23.54 25 23.4 25.43C23.3429 25.6128 23.2858 25.7985 23.2281 25.986L23.228 25.9862C23.1343 26.2909 23.0391 26.6005 22.94 26.91C22.81 27.42 22.65 27.89 22.5 28.31ZM34.7001 29.4H31.5301C31.5701 29.71 31.6701 30.02 31.8401 30.29C32.0201 30.56 32.2701 30.77 32.5701 30.89C32.9701 31.06 33.4101 31.15 33.8501 31.14C34.2001 31.13 34.5501 31.1 34.8901 31.03C35.2001 30.99 35.5001 30.91 35.7801 30.8C35.8301 30.76 35.8601 30.78 35.8601 30.88V32.41C35.8601 32.45 35.8501 32.49 35.8401 32.53C35.8201 32.56 35.8001 32.58 35.7701 32.6C35.4501 32.74 35.1201 32.84 34.7701 32.9C34.3001 32.99 33.8301 33.03 33.3501 33.02C32.5901 33.02 31.9501 32.9 31.4301 32.67C30.9401 32.46 30.5101 32.13 30.1701 31.72C29.8501 31.33 29.6201 30.89 29.4801 30.41C29.3401 29.94 29.2701 29.45 29.2701 28.95C29.2701 28.41 29.3501 27.88 29.5201 27.36C29.6801 26.86 29.9301 26.4 30.2701 25.99C30.6001 25.59 31.0101 25.27 31.4801 25.04C31.9501 24.81 32.5101 24.73 33.1501 24.73C33.6801 24.72 34.2101 24.82 34.7001 25.04C35.1101 25.22 35.4701 25.49 35.7501 25.84C36.0101 26.18 36.2201 26.56 36.3501 26.98C36.4801 27.38 36.5401 27.79 36.5401 28.2C36.5401 28.44 36.5301 28.65 36.5201 28.84C36.509 28.9454 36.501 29.0354 36.4943 29.11C36.489 29.1699 36.4845 29.2199 36.4801 29.26C36.4701 29.33 36.4101 29.39 36.3401 29.39C36.3012 29.39 36.2412 29.3942 36.1601 29.3999L36.16 29.3999C36.1162 29.403 36.0662 29.4065 36.0101 29.41C35.8501 29.43 35.6601 29.44 35.4301 29.44C35.3186 29.44 35.2048 29.4306 35.0875 29.4209C34.9627 29.4106 34.8341 29.4 34.7001 29.4ZM31.5301 27.94H33.6401H33.6401C33.9001 27.94 34.0901 27.94 34.2101 27.93C34.2901 27.92 34.3701 27.9 34.4401 27.85V27.75C34.4401 27.62 34.4201 27.5 34.3801 27.38C34.2001 26.82 33.6701 26.44 33.0801 26.46C32.5301 26.43 32.0101 26.72 31.7501 27.22C31.6301 27.45 31.5601 27.69 31.5301 27.94Z" fill="var(--item--01)"/>
</svg>
