<svg width="56" height="56" viewBox="0 0 56 56" fill="none" xmlns="http://www.w3.org/2000/svg">
<rect width="56" height="56" rx="4" fill="var(--surface--00)"/>
<rect width="40" height="40" transform="translate(8 8)" fill="var(--surface--00)"/>
<path d="M37.9998 36.2995C38.008 37.8196 36.7821 39.0573 35.2629 39.0655C35.15 39.0665 35.0361 39.0601 34.9241 39.0464C33.5142 38.8378 32.4814 37.611 32.516 36.1866V19.8089C32.4823 18.3826 33.5178 17.1558 34.9286 16.9491C36.4378 16.7724 37.8049 17.8526 37.9816 19.3617C37.9943 19.4728 38.0007 19.584 37.9998 19.696V36.2995Z" fill="var(--item--01)"/>
<path d="M20.7424 33.5854C22.257 33.5854 23.4847 34.8131 23.4847 36.3277C23.4847 37.8424 22.257 39.0701 20.7424 39.0701C19.2277 39.0701 18 37.8424 18 36.3277C18 34.8131 19.2277 33.5854 20.7424 33.5854ZM27.9576 25.2745C26.4356 25.3583 25.2553 26.6343 25.2908 28.158V35.5235C25.2908 37.5227 26.1706 38.7358 27.4594 38.9945C28.9467 39.296 30.3957 38.3351 30.6972 36.8478C30.7345 36.6656 30.7527 36.4807 30.7518 36.2949V28.0305C30.7546 26.5104 29.525 25.2763 28.0049 25.2736C27.9894 25.2736 27.973 25.2736 27.9576 25.2745Z" fill="var(--item--01)"/>
</svg>
