<svg width="56" height="56" viewBox="0 0 56 56" fill="none" xmlns="http://www.w3.org/2000/svg">
<rect width="56" height="56" rx="4" fill="var(--surface--00)"/>
<rect width="40" height="40" transform="translate(8 8)" fill="var(--surface--00)"/>
<g clip-path="url(#clip0_252_4591)">
<path fill-rule="evenodd" clip-rule="evenodd" d="M20.9849 18.4408C19.6155 18.4408 18.6022 19.6394 18.6475 20.9392C18.6911 22.188 18.6345 23.8054 18.2274 25.1244C17.8187 26.447 17.1282 27.2852 16 27.3928V28.6074C17.1282 28.7152 17.8187 29.553 18.2273 30.8758C18.6345 32.1948 18.691 33.8122 18.6475 35.061C18.6021 36.3606 19.6154 37.5594 20.9851 37.5594H35.017C36.3864 37.5594 37.3995 36.3608 37.3541 35.061C37.3105 33.8122 37.3671 32.1948 37.7743 30.8758C38.1829 29.553 38.8718 28.7149 40 28.6074V27.3928C38.8718 27.285 38.1829 26.4472 37.7743 25.1244C37.3671 23.8056 37.3105 22.188 37.3541 20.9392C37.3995 19.6396 36.3864 18.4408 35.017 18.4408H20.9847H20.9849ZM32.2712 30.2096C32.2712 31.9994 30.9362 33.0849 28.7206 33.0849H24.9491C24.8413 33.0849 24.7378 33.042 24.6615 32.9657C24.5852 32.8894 24.5424 32.786 24.5424 32.6781V23.3222C24.5424 23.2143 24.5852 23.1108 24.6615 23.0345C24.7378 22.9582 24.8413 22.9154 24.9491 22.9154H28.6991C30.5465 22.9154 31.759 23.9161 31.759 25.4525C31.759 26.5308 30.9433 27.4962 29.9042 27.6653V27.7216C31.3187 27.8767 32.2712 28.8564 32.2712 30.2096ZM28.3094 24.2049H26.1589V27.2424H27.9701C29.3703 27.2424 30.1423 26.6786 30.1423 25.6708C30.1422 24.7264 29.4784 24.2049 28.3094 24.2049ZM26.1589 28.4476V31.795H28.3885C29.8463 31.795 30.6185 31.21 30.6185 30.1107C30.6185 29.0114 29.8247 28.4474 28.2947 28.4474H26.1589V28.4476Z" fill="var(--item--01)"/>
</g>
<defs>
<clipPath id="clip0_252_4591">
<rect width="24" height="19.1232" fill="var(--surface--00)" transform="translate(16 18.4384)"/>
</clipPath>
</defs>
</svg>
