<svg width="56" height="56" viewBox="0 0 56 56" fill="none" xmlns="http://www.w3.org/2000/svg">
<rect width="56" height="56" rx="4" fill="var(--surface--00)"/>
<rect width="40" height="40" transform="translate(8 8)" fill="var(--surface--00)"/>
<path d="M17.4792 16.2884C17.4792 16.4486 17.8851 21.1482 18.3871 26.7343C18.8784 32.3097 19.3057 37.0414 19.3164 37.2443L19.3484 37.6075L23.6742 38.8037L27.9893 40L28.8544 39.765C29.3244 39.6368 31.2576 39.1028 33.1588 38.5794C36.1068 37.7677 36.6088 37.5968 36.6515 37.4152C36.7049 37.1589 38.5206 16.5768 38.5206 16.235V16H17.4792V16.2884ZM34.6435 20.8278C34.6007 21.0841 34.323 24.1175 34.024 27.5888C33.7142 31.0494 33.4579 33.9119 33.4365 33.9332C33.3938 33.9866 28.1495 35.4393 27.9999 35.4393C27.8931 35.4393 25.0307 34.6595 23.076 34.1041L22.5313 33.9439L22.4031 32.534C22.3391 31.7543 22.2536 30.8144 22.2109 30.4406L22.1468 29.7784H23.4819C24.9879 29.7784 24.9452 29.757 24.9559 30.6862C24.9559 30.9212 24.9879 31.2844 25.02 31.498L25.0841 31.8825L26.5473 32.267L27.9999 32.6515L29.4419 32.267C30.2323 32.0534 30.8945 31.8718 30.8945 31.8718C30.9052 31.8611 30.9692 31.231 31.0333 30.4726C31.0974 29.7036 31.1722 28.9559 31.2042 28.785L31.2576 28.4967H22.0934L22.04 28.251C22.008 28.1228 21.9439 27.5033 21.9011 26.8625L21.8264 25.7196H31.4499L31.514 24.9933C31.5567 24.5981 31.6208 23.9893 31.6528 23.6475C31.6955 23.2096 31.6849 23.0387 31.5994 23.0921C31.5353 23.1242 29.2603 23.1242 26.526 23.0814L21.5594 23.0174L21.4953 22.259C21.4525 21.8425 21.3991 21.2443 21.3671 20.9346L21.303 20.3792H34.6969L34.6435 20.8278Z" fill="var(--item--01)"/>
</svg>
