<svg width="56" height="56" viewBox="0 0 56 56" fill="none" xmlns="http://www.w3.org/2000/svg">
<rect width="56" height="56" rx="4" fill="var(--surface--00)"/>
<rect width="40" height="40" transform="translate(8 8)" fill="var(--surface--00)"/>
<g clip-path="url(#clip0_252_4591)">
<path d="M27.9536 16.3264C21.3527 16.3264 16 21.6781 16 28.28C16 33.5615 19.4251 38.0422 24.1746 39.6228C24.772 39.7334 24.9914 39.3635 24.9914 39.0477C24.9914 38.7627 24.9802 37.821 24.9752 36.8222C21.6496 37.5453 20.9478 35.4118 20.9478 35.4118C20.4041 34.0301 19.6206 33.6628 19.6206 33.6628C18.5361 32.9209 19.7024 32.9361 19.7024 32.9361C20.9028 33.0204 21.5348 34.1679 21.5348 34.1679C22.6009 35.9954 24.3312 35.467 25.0133 35.1617C25.1206 34.389 25.4304 33.8618 25.7722 33.5633C23.1172 33.2609 20.3261 32.2359 20.3261 27.6557C20.3261 26.3507 20.7931 25.2843 21.5578 24.4472C21.4337 24.1461 21.0245 22.9303 21.6736 21.2838C21.6736 21.2838 22.6773 20.9625 24.9617 22.5091C25.9151 22.2442 26.9377 22.1114 27.9536 22.1069C28.9695 22.1114 29.9928 22.2442 30.9482 22.5091C33.2298 20.9625 34.2321 21.2838 34.2321 21.2838C34.8828 22.9303 34.4734 24.1461 34.3493 24.4472C35.1157 25.2843 35.5795 26.3506 35.5795 27.6557C35.5795 32.2468 32.7831 33.2578 30.1214 33.5537C30.5501 33.9247 30.9321 34.6522 30.9321 35.7673C30.9321 37.3667 30.9183 38.654 30.9183 39.0477C30.9183 39.3658 31.1334 39.7386 31.7394 39.6212C36.4863 38.0388 39.9071 33.5597 39.9071 28.28C39.9071 21.6781 34.5552 16.3264 27.9536 16.3264Z" fill="var(--item--01)"/>
<path d="M20.4771 33.3546C20.4509 33.4139 20.3573 33.4317 20.2723 33.391C20.1856 33.352 20.1368 33.271 20.165 33.2114C20.1907 33.1503 20.2843 33.1332 20.3708 33.1743C20.4577 33.2132 20.5072 33.2949 20.4771 33.3546ZM21.0651 33.8792C21.0081 33.9321 20.8967 33.9075 20.821 33.824C20.7428 33.7406 20.7282 33.6292 20.786 33.5755C20.8448 33.5227 20.9529 33.5474 21.0313 33.6308C21.1095 33.7151 21.1247 33.8258 21.0651 33.8793M21.4686 34.5504C21.3952 34.6013 21.2754 34.5536 21.2015 34.4473C21.1282 34.3411 21.1282 34.2136 21.2031 34.1625C21.2773 34.1114 21.3952 34.1573 21.4702 34.2628C21.5434 34.3709 21.5434 34.4984 21.4685 34.5505M22.1507 35.3279C22.0851 35.4001 21.9456 35.3808 21.8435 35.2822C21.739 35.1858 21.7099 35.049 21.7756 34.9767C21.8419 34.9043 21.9822 34.9247 22.0851 35.0225C22.1889 35.1187 22.2205 35.2565 22.1507 35.3279ZM23.0323 35.5904C23.0035 35.684 22.8691 35.7265 22.7337 35.6868C22.5985 35.6458 22.51 35.5361 22.5373 35.4415C22.5654 35.3473 22.7004 35.303 22.8368 35.3455C22.9718 35.3863 23.0604 35.4952 23.0323 35.5904ZM24.0358 35.7017C24.0392 35.8003 23.9243 35.8821 23.7822 35.8838C23.6392 35.8869 23.5236 35.8072 23.5221 35.7102C23.5221 35.6107 23.6344 35.5297 23.7772 35.5273C23.9194 35.5245 24.0358 35.6037 24.0358 35.7017ZM25.0215 35.6639C25.0386 35.7601 24.9397 35.8589 24.7986 35.8852C24.6599 35.9105 24.5315 35.8511 24.5137 35.7558C24.4965 35.6571 24.5972 35.5584 24.7356 35.5328C24.877 35.5083 25.0035 35.5661 25.0215 35.6639Z" fill="var(--item--01)"/>
</g>
<defs>
<clipPath id="clip0_252_4591">
<rect width="24" height="23.3472" fill="var(--surface--k00)" transform="translate(16 16.3264)"/>
</clipPath>
</defs>
</svg>
