<svg width="56" height="56" viewBox="0 0 56 56" fill="none" xmlns="http://www.w3.org/2000/svg">
<rect width="56" height="56" rx="4" fill="var(--surface--00)"/>
<rect width="40" height="40" transform="translate(8 8)" fill="var(--surface--00)"/>
<path d="M41.4719 26.7529L29.2466 14.5285C29.0792 14.361 28.8804 14.2281 28.6617 14.1375C28.4429 14.0469 28.2084 14.0002 27.9716 14.0002C27.7348 14.0002 27.5003 14.0469 27.2815 14.1375C27.0627 14.2281 26.8639 14.361 26.6965 14.5285L24.158 17.0673L27.3783 20.2873C27.7568 20.1586 28.1638 20.1385 28.5532 20.2292C28.9426 20.3199 29.2988 20.5178 29.5815 20.8006C29.8657 21.0852 30.0641 21.4439 30.154 21.8359C30.244 22.2279 30.2219 22.6372 30.0903 23.0172L33.1934 26.1208C33.9442 25.8622 34.8108 26.0296 35.4102 26.6302C35.6095 26.8294 35.7677 27.0659 35.8755 27.3262C35.9834 27.5865 36.0389 27.8655 36.0389 28.1473C36.0389 28.4291 35.9834 28.7081 35.8755 28.9684C35.7677 29.2287 35.6095 29.4652 35.4102 29.6644C35.0596 30.0154 34.5981 30.234 34.1044 30.2831C33.6107 30.3321 33.1152 30.2085 32.7024 29.9334C32.2895 29.6582 31.9848 29.2485 31.84 28.7739C31.6953 28.2994 31.7195 27.7893 31.9085 27.3306L29.0143 24.4364L29.014 32.0529C29.2239 32.1566 29.4155 32.2937 29.5815 32.4587C29.7808 32.6579 29.9389 32.8945 30.0467 33.1548C30.1546 33.4152 30.2101 33.6942 30.2101 33.9761C30.2101 34.2579 30.1546 34.5369 30.0467 34.7973C29.9389 35.0576 29.7808 35.2942 29.5815 35.4934C28.7431 36.3318 27.3843 36.3318 26.5472 35.4934C26.2972 35.2435 26.1127 34.9357 26.0103 34.5974C25.9078 34.259 25.8906 33.9006 25.9601 33.5539C26.0296 33.2073 26.1837 32.8832 26.4086 32.6105C26.6336 32.3377 26.9224 32.1248 27.2495 31.9906V24.3032C26.9864 24.1957 26.7476 24.0365 26.5472 23.8348C25.9123 23.2007 25.7596 22.269 26.0849 21.4892L22.9106 18.3144L14.5283 26.6961C14.3608 26.8636 14.228 27.0625 14.1373 27.2813C14.0467 27.5002 14 27.7347 14 27.9716C14 28.2085 14.0467 28.443 14.1373 28.6619C14.228 28.8807 14.3608 29.0796 14.5283 29.2471L26.7536 41.4717C27.0918 41.8099 27.5504 41.9998 28.0286 41.9998C28.5068 41.9998 28.9655 41.8099 29.3037 41.4717L41.4719 29.3041C41.81 28.9657 42 28.5069 42 28.0285C42 27.5501 41.81 27.0913 41.4719 26.7529Z" fill="var(--item--01)"/>
</svg>
