<svg width="56" height="56" viewBox="0 0 56 56" fill="none" xmlns="http://www.w3.org/2000/svg">
<rect width="56" height="56" rx="4" fill="var(--surface--00)"/>
<rect width="40" height="40" transform="translate(8 8)" fill="var(--surface--00)"/>
<g clip-path="url(#clip0_252_4591)">
<path d="M27.9956 16.0987H27.9955C21.4251 16.0987 16.0986 21.4251 16.0986 27.9956V27.9957C16.0986 34.5661 21.4251 39.8926 27.9955 39.8926H27.9956C34.5661 39.8926 39.8925 34.5661 39.8925 27.9957V27.9956C39.8925 21.4251 34.5661 16.0987 27.9956 16.0987Z" stroke="var(--item--01)" stroke-opacity="0.2" stroke-width="0.197388"/>
<path fill-rule="evenodd" clip-rule="evenodd" d="M27.9957 16H27.9956C21.3706 16 16 21.3706 16 27.9956V27.9957C16 34.6207 21.3706 39.9913 27.9956 39.9913H27.9957C34.6207 39.9913 39.9913 34.6207 39.9913 27.9957V27.9956C39.9913 21.3706 34.6207 16 27.9957 16ZM26.9773 26.9628C28.5017 26.116 30.5895 24.9558 30.5895 21.5793H28.0614C28.0614 23.4685 27.1417 23.9794 25.7495 24.7529L25.7495 24.7529L25.7486 24.7534C24.2243 25.6005 22.1372 26.7604 22.1372 30.1365H24.6653C24.6653 28.2473 25.585 27.7363 26.9772 26.9629L26.9773 26.9628ZM29.0405 29.3605C30.4327 28.5872 31.3524 28.0762 31.3524 26.187H33.8804C33.8804 29.5637 31.7926 30.7236 30.2682 31.5704L30.2682 31.5705C28.8759 32.3439 27.9562 32.8549 27.9562 34.7441H25.4282C25.4282 31.3679 27.516 30.2077 29.0399 29.3608L29.0405 29.3605Z" fill="var(--item--01)"/>
</g>
<defs>
<clipPath id="clip0_252_4591">
<rect width="24" height="24" fill="var(--surface--00)" transform="translate(16 16)"/>
</clipPath>
</defs>
</svg>
