<svg width="56" height="56" viewBox="0 0 56 56" fill="none" xmlns="http://www.w3.org/2000/svg">
<rect width="56" height="56" rx="4" fill="var(--surface--00)"/>
<rect width="40" height="40" transform="translate(8 8)" fill="var(--surface--00)"/>
<g clip-path="url(#clip0_252_4591)">
<path fill-rule="evenodd" clip-rule="evenodd" d="M16 14.4101L18.1715 38.7669L27.9163 41.4722L37.688 38.7631L39.8619 14.4101H16ZM27.9207 25.4352V25.4353H23.9781L23.7051 22.3763H27.9311V22.3762H35.1363L35.1962 21.7048L35.3323 20.1904L35.4037 19.3889H27.9207V19.389H20.4404L20.5119 20.1904L21.2461 28.4225H27.9311V28.4225H31.5991L31.2523 32.2967L27.9207 33.196V33.1963L27.9181 33.197L24.591 32.2987L24.3784 29.9162H21.3796L21.7981 34.6066L27.9173 36.3054L27.9311 36.3015V36.301L34.0447 34.6066L34.0896 34.1019L34.7916 26.2374L34.8644 25.4352H34.0595H27.9207Z" fill="var(--item--01)"/>
</g>
<defs>
<clipPath id="clip0_252_4591">
<rect width="24" height="26.9474" fill="var(--surface--00)" transform="translate(16 14.5263)"/>
</clipPath>
</defs>
</svg>
