<svg width="56" height="56" viewBox="0 0 56 56" fill="none" xmlns="http://www.w3.org/2000/svg">
<rect width="56" height="56" rx="4" fill="var(--surface--00)"/>
<rect width="40" height="40" transform="translate(8 8)" fill="var(--surface--00)"/>
<g clip-path="url(#clip0_252_4591)">
<path d="M38.4691 15.9989H17.5331C16.6861 15.9989 16 16.685 16 17.532V38.468C16 39.3128 16.6861 40.0011 17.5331 40.0011H38.4691C39.3139 40.0011 40.0022 39.315 40.0022 38.468V17.5297C40 16.685 39.3139 15.9989 38.4691 15.9989ZM26.8971 29.5264C26.8971 30.1924 26.8345 30.7623 26.7071 31.2316C26.5798 31.7009 26.3876 32.0763 26.1328 32.3713C25.8758 32.6619 25.5562 32.8764 25.174 33.0105C24.7919 33.1468 24.3471 33.2139 23.8398 33.2139C23.3929 33.2139 22.9906 33.1424 22.6286 33.0038C21.9201 32.7379 21.3659 32.168 21.1223 31.4528C20.9792 31.0528 20.91 30.6326 20.9167 30.208V29.9085H22.3537C22.3537 31.2472 22.8498 31.9177 23.8421 31.9177C24.0968 31.9177 24.3203 31.8886 24.5215 31.8283C24.7204 31.7657 24.888 31.654 25.0265 31.4841C25.1651 31.3165 25.2679 31.0841 25.3394 30.7824C25.4109 30.4807 25.4467 30.0896 25.4467 29.6046V22.1134H26.9016L26.8971 29.5264ZM34.9224 31.7009C34.7705 32.0071 34.5559 32.2775 34.2922 32.4943C33.9972 32.7312 33.6575 32.9122 33.2955 33.0239C32.9044 33.1491 32.4663 33.2116 31.9814 33.2116C29.8337 33.2116 28.7006 32.3646 28.5844 30.6662H29.9968C30.0035 31.6249 30.6606 32.1054 31.9657 32.1054C32.2563 32.1054 32.5155 32.0741 32.7368 32.0093C32.9602 31.9467 33.1457 31.8573 33.2932 31.7456C33.5815 31.5377 33.7514 31.2048 33.7491 30.8494C33.7558 30.693 33.7246 30.5388 33.662 30.3957C33.6039 30.2795 33.4899 30.179 33.3223 30.0896C33.0988 29.9801 32.8664 29.8929 32.625 29.8303C32.2384 29.7186 31.8495 29.6113 31.4584 29.5107C30.9913 29.3945 30.5868 29.2783 30.2494 29.1621C29.9499 29.0682 29.6683 28.9274 29.4135 28.742C29.2012 28.5833 29.0336 28.3732 28.9286 28.1318C28.8235 27.8882 28.7721 27.5821 28.7721 27.2133C28.7721 26.8893 28.8414 26.5876 28.9777 26.3082C29.1163 26.0311 29.3107 25.7897 29.57 25.5841C29.8248 25.3807 30.1354 25.2221 30.4974 25.1059C30.8908 24.9852 31.302 24.9271 31.7132 24.9315C33.7894 24.9315 34.8464 25.669 34.8777 27.1463H33.4877C33.4385 26.4088 32.882 26.0378 31.8182 26.0378C31.5813 26.0378 31.3646 26.0624 31.1612 26.1093C30.9578 26.1562 30.7857 26.2233 30.636 26.3127C30.4863 26.3998 30.3723 26.5093 30.2874 26.639C30.2047 26.7731 30.16 26.9295 30.1644 27.0882C30.1644 27.2424 30.1846 27.3698 30.2226 27.4681C30.2605 27.5687 30.3522 27.6603 30.4997 27.7452C30.6449 27.8301 30.8617 27.9151 31.1478 27.9978C31.4338 28.0804 31.8249 28.1832 32.3211 28.3039C32.7993 28.4201 33.2172 28.5386 33.5704 28.6637C33.9212 28.7889 34.214 28.9386 34.4509 29.1152C34.6855 29.2895 34.8576 29.5063 34.9716 29.7588C35.0833 30.0113 35.1414 30.3287 35.1414 30.7086C35.1459 31.0684 35.0699 31.397 34.9224 31.7009Z" fill="var(--item--01)"/>
</g>
<defs>
<clipPath id="clip0_252_4591">
<rect width="24" height="24.0022" fill="var(--surface--00)" transform="translate(16 15.9989)"/>
</clipPath>
</defs>
</svg>
