<svg width="56" height="56" viewBox="0 0 56 56" fill="none" xmlns="http://www.w3.org/2000/svg">
<rect width="56" height="56" rx="4" fill="var(--surface--00)"/>
<rect width="40" height="40" transform="translate(8 8)" fill="var(--surface--00)"/>
<g clip-path="url(#clip0_252_4591)">
<path d="M38.2286 18.1781H27.4795C27.4795 19.465 27.9907 20.6992 28.9007 21.6092C29.8107 22.5192 31.0449 23.0304 32.3318 23.0304H34.3119V24.9422C34.3137 27.6196 36.4837 29.7897 39.1611 29.7915V19.1106C39.1611 18.5957 38.7437 18.1781 38.2286 18.1781Z" fill="var(--item--01)"/>
<path d="M32.9099 23.534H22.1609C22.1625 26.2114 24.3325 28.3815 27.0101 28.3832H28.9902V30.3012C28.9936 32.9786 31.1651 35.1472 33.8425 35.1472V24.4666C33.8425 23.9516 33.4249 23.534 32.9099 23.534Z" fill="var(--item--01)"/>
<path d="M27.5882 28.8868H16.8391C16.8391 31.5666 19.0116 33.7391 21.6914 33.7391H23.6777V35.6508C23.6795 38.3258 25.8457 40.4949 28.5208 40.5V29.8194C28.5208 29.3043 28.1032 28.8868 27.5882 28.8868Z" fill="var(--item--01)"/>
</g>
<defs>
<clipPath id="clip0_252_4591">
<rect width="25" height="25" fill="var(--surface--00)" transform="translate(15.5 15.5)"/>
</clipPath>
</defs>
</svg>
