<svg width="56" height="56" viewBox="0 0 56 56" fill="none" xmlns="http://www.w3.org/2000/svg">
<rect width="56" height="56" rx="4" fill="var(--surface--00)"/>
<rect width="40" height="40" transform="translate(8 8)" fill="var(--surface--00)"/>
<g clip-path="url(#clip0_252_4591)">
<path d="M18.7191 31.3002C18.7404 31.3485 18.7646 31.393 18.7905 31.4376C18.8026 31.4636 18.8193 31.4905 18.8342 31.5146C18.8583 31.5629 18.8843 31.6093 18.9094 31.6557L19.0551 31.9008C19.082 31.9463 19.108 31.9908 19.1387 32.0354C19.1897 32.1227 19.2501 32.2081 19.303 32.2953C19.3271 32.3315 19.3494 32.3677 19.3763 32.404C19.4784 32.5627 19.5713 32.6945 19.6706 32.8226C19.7411 32.9182 19.8117 33.012 19.8878 33.1058C19.9129 33.141 19.9407 33.1763 19.9667 33.2116L20.1719 33.4604C20.197 33.4892 20.222 33.5226 20.2489 33.5523C20.3399 33.6618 20.4365 33.7677 20.533 33.8753C20.533 33.8772 20.5358 33.8791 20.5376 33.8818C20.6574 34.0322 20.7864 34.1659 20.9275 34.2847L20.9313 34.2884C21.0055 34.3646 21.0798 34.4398 21.1587 34.514L21.2525 34.6041C21.3555 34.7006 21.4585 34.7962 21.5672 34.8891C21.569 34.8891 21.5699 34.8909 21.5718 34.8919L21.6247 34.9383C21.7194 35.0209 21.815 35.1026 21.9125 35.1787L22.0285 35.2762C22.1074 35.3393 22.1891 35.3987 22.2699 35.4609L22.3961 35.5575C22.4825 35.6224 22.5744 35.6856 22.6626 35.7487C22.6951 35.7719 22.7276 35.7951 22.761 35.8165L22.7879 35.8378L23.0488 36.0086L23.1602 36.0829C23.2966 36.1702 23.4322 36.2518 23.5677 36.3335C23.6067 36.353 23.6457 36.3744 23.6819 36.3967C23.7821 36.4542 23.8861 36.5127 23.9873 36.5656C24.043 36.5972 24.1005 36.6241 24.1581 36.6529C24.2277 36.6919 24.3001 36.7299 24.3744 36.7689C24.3948 36.7754 24.4115 36.7819 24.4282 36.7912L24.432 36.7875C24.4626 36.8014 24.4914 36.8163 24.5211 36.8311C24.6325 36.8868 24.7485 36.9397 24.8692 36.9917C24.8915 37.001 24.9156 37.0103 24.9397 37.0233C25.0734 37.0818 25.2071 37.1375 25.3454 37.1913C25.377 37.2006 25.4104 37.2164 25.4429 37.2284C25.5682 37.2758 25.6973 37.3241 25.8254 37.3695L25.8718 37.3863C26.0138 37.4345 26.154 37.4809 26.2988 37.5246C26.3322 37.5339 26.3666 37.5459 26.4019 37.5552C26.5495 37.5998 26.6924 37.6527 26.8419 37.6805C36.3785 39.41 39.1496 31.9751 39.1496 31.9751C36.8213 34.9921 32.6894 35.7877 28.7765 34.9021C28.6317 34.8686 28.4869 34.8222 28.3402 34.7795C28.1332 34.7209 27.9279 34.6562 27.7247 34.5855L27.8129 34.6124L27.7553 34.5901C27.6291 34.5474 27.5075 34.5001 27.384 34.4528C27.3538 34.4399 27.3231 34.4282 27.2921 34.4175L27.2819 34.4147C27.1454 34.3599 27.0127 34.3042 26.8809 34.2457C26.8521 34.2365 26.828 34.2235 26.7992 34.2123C26.643 34.1443 26.4883 34.0731 26.335 33.9988L26.4631 34.0554C26.4297 34.0407 26.3969 34.0246 26.3647 34.0072C26.2775 33.9663 26.1902 33.9199 26.1048 33.8763C26.0397 33.8454 25.9757 33.8126 25.9126 33.7779L25.9312 33.7872C25.8263 33.7315 25.7214 33.6711 25.6156 33.6145C25.584 33.5922 25.5478 33.5736 25.5116 33.5532C25.3543 33.4618 25.1989 33.3671 25.0456 33.2691L25.1041 33.3044C25.0648 33.2802 25.0264 33.2545 24.9889 33.2274L24.9945 33.2311C24.8947 33.1698 24.7969 33.1054 24.7012 33.038C24.6696 33.0176 24.6408 32.9953 24.6083 32.973C24.5083 32.9047 24.4099 32.8342 24.3131 32.7614L24.3354 32.7771C24.2964 32.7456 24.2546 32.7159 24.2129 32.6852C24.1312 32.6212 24.0486 32.5599 23.9669 32.4931L23.8573 32.4058C23.7406 32.3129 23.6261 32.2173 23.5138 32.119L23.5129 32.118L23.1908 31.8256L23.098 31.7383C23.0218 31.6613 22.9439 31.588 22.8659 31.5118L22.7758 31.419C22.6797 31.3238 22.5859 31.2263 22.4945 31.1266L22.489 31.1201L22.4732 31.1071C22.3749 30.9991 22.278 30.8899 22.1826 30.7794C22.1576 30.7506 22.1344 30.72 22.1084 30.6893L21.8976 30.4341C21.8026 30.3147 21.7098 30.1937 21.6191 30.0711L21.582 30.0191C19.4116 27.0707 18.6262 23.0019 20.3631 19.6637L18.8295 21.6029C16.8569 24.4241 17.101 28.0928 18.6095 31.0885C18.6439 31.1619 18.6819 31.2306 18.7191 31.3002Z" fill="var(--item--01)"/>
<path d="M25.363 27.236L25.3528 27.2211L25.3445 27.21L25.363 27.236Z" fill="var(--surface--00)"/>
<path d="M26.4008 28.454L26.4843 28.5375C26.5901 28.6396 26.6987 28.7389 26.8092 28.8383L26.8231 28.8503C26.9345 28.9487 27.0599 29.0518 27.1889 29.152L27.2084 29.1669C27.24 29.1883 27.2669 29.2133 27.2975 29.2347C27.4275 29.3349 27.5584 29.4305 27.6948 29.5262L27.7088 29.5345C27.7663 29.5763 27.8276 29.6144 27.8926 29.6552C27.9186 29.6719 27.9483 29.6942 27.9761 29.7109C28.0745 29.774 28.1711 29.8325 28.2704 29.8928C28.2862 29.8993 28.3001 29.9077 28.315 29.9142C28.3985 29.9653 28.4895 30.0145 28.5767 30.059C28.6074 30.0776 28.6371 30.0915 28.6686 30.1091C28.7308 30.1398 28.7921 30.1723 28.8515 30.2038L28.8812 30.2168C29.0066 30.2781 29.1347 30.3357 29.26 30.3923C29.2915 30.4044 29.3185 30.4146 29.3454 30.4276C29.4484 30.4721 29.5533 30.5148 29.6564 30.5538C29.7028 30.5696 29.7464 30.5882 29.7901 30.6021C29.8847 30.6374 29.9841 30.6699 30.0778 30.7023L30.2078 30.7441C30.3433 30.7859 30.4807 30.8407 30.6246 30.8629C37.989 32.0753 39.6934 26.4339 39.6934 26.4339C38.1589 28.6313 35.1892 29.6784 32.0245 28.8606C31.8666 28.8207 31.7099 28.7758 31.5548 28.7259L31.6077 28.7408C31.5631 28.7287 31.5242 28.7148 31.4815 28.7018C31.3849 28.6684 31.2856 28.6359 31.1918 28.6016L31.0581 28.5514C30.9542 28.5096 30.8483 28.4707 30.7472 28.4261C30.7156 28.4122 30.6868 28.4029 30.6627 28.389C30.5327 28.3305 30.4018 28.2729 30.2746 28.2117L30.0834 28.1123L29.9729 28.0566C29.8875 28.0121 29.8086 27.9657 29.7269 27.9183C29.7061 27.9085 29.6859 27.8974 29.6666 27.8849L29.6694 27.8858C29.571 27.8245 29.4689 27.7651 29.3742 27.7029C29.3426 27.6853 29.3138 27.6639 29.2841 27.6454L29.091 27.5201C28.9574 27.4272 28.8265 27.3279 28.6937 27.2314C28.664 27.2044 28.6352 27.1821 28.6064 27.158C27.2149 26.0691 26.1176 24.581 25.5968 22.8961C25.0482 21.1443 25.1689 19.18 26.1167 17.5861L24.9516 19.2274C23.5211 21.2706 23.6019 24.0017 24.7159 26.1629C24.9192 26.562 25.1252 26.899 25.3527 27.2202C25.5643 27.5228 25.7983 27.8775 26.0805 28.1207C26.1807 28.2349 26.2884 28.3435 26.4008 28.454Z" fill="var(--item--01)"/>
<path d="M19.6753 32.8282L19.6715 32.8226L19.665 32.8143L19.6753 32.8282ZM23.5352 32.1375L23.5445 32.144L23.5464 32.1468L23.5352 32.1375Z" fill="var(--surface--00)"/>
<path d="M30.1003 17.4506C29.2565 18.6824 29.1757 20.2123 29.7568 21.5704C30.3742 23.0131 31.6358 24.1456 33.1062 24.6822C33.1666 24.7054 33.225 24.7249 33.2872 24.7472L33.3689 24.7722C33.4543 24.7991 33.5407 24.8307 33.6289 24.8502C37.6958 25.6309 38.7968 22.7726 39.093 22.3521C38.1247 23.7353 36.5011 24.0676 34.5089 23.5858C34.3357 23.5436 34.1652 23.4909 33.9983 23.428L34.029 23.4382C33.8214 23.3664 33.618 23.2827 33.42 23.1876L33.4553 23.2034C33.0747 23.0177 32.7479 22.8172 32.4443 22.587C30.6638 21.2409 29.5628 18.6778 30.7251 16.59L30.1003 17.4506Z" fill="var(--item--01)"/>
</g>
<defs>
<clipPath id="clip0_252_4591">
<rect width="25" height="22.82" fill="var(--surface--00)" transform="translate(15.5 16.59)"/>
</clipPath>
</defs>
</svg>
