<svg width="56" height="56" viewBox="0 0 56 56" fill="none" xmlns="http://www.w3.org/2000/svg">
<rect width="56" height="56" rx="4" fill="var(--surface--00)"/>
<rect width="40" height="40" transform="translate(8 8)" fill="var(--surface--00)"/>
<path fill-rule="evenodd" clip-rule="evenodd" d="M28.0001 19.4411C24.1962 19.4411 21.8187 21.3431 20.8677 25.147C22.2942 23.2451 23.9584 22.5318 25.8604 23.0073C26.9456 23.2783 27.7211 24.0661 28.5797 24.9373C29.9781 26.3569 31.5969 28 35.1325 28C38.9364 28 41.3139 26.098 42.2649 22.2941C40.8384 24.196 39.1742 24.9093 37.2722 24.4338C36.187 24.1628 35.4114 23.375 34.5529 22.5038C33.1544 21.0842 31.5356 19.4411 28.0001 19.4411ZM20.8677 28C17.0638 28 14.6863 29.9019 13.7354 33.7059C15.1618 31.8039 16.826 31.0907 18.728 31.5662C19.8132 31.8377 20.5888 32.6249 21.4473 33.4961C22.8458 34.9157 24.4646 36.5588 28.0001 36.5588C31.804 36.5588 34.1815 34.6569 35.1325 30.8529C33.706 32.7549 32.0418 33.4681 30.1398 32.9926C29.0546 32.7216 28.2791 31.9339 27.4205 31.0627C26.0221 29.6431 24.4033 28 20.8677 28Z" fill="var(--item--01)"/>
</svg>
