<svg width="56" height="56" viewBox="0 0 56 56" fill="none" xmlns="http://www.w3.org/2000/svg">
<rect width="56" height="56" rx="4" fill="var(--surface--00)"/>
<rect width="40" height="40" transform="translate(8 8)" fill="var(--surface--00)"/>
<path fill-rule="evenodd" clip-rule="evenodd" d="M39.2812 16.0001C39.6764 16.0001 39.9997 16.3235 39.9997 16.7187V33.5329L33.5327 39.9998H16.7186C16.3233 39.9998 16 39.6765 16 39.2813V16.7187C16 16.3235 16.3233 16.0001 16.7186 16.0001H39.2812ZM32.7425 31.6646V24.4432C32.7425 24.2994 32.5988 24.1917 32.491 24.1917H30.8024C30.7305 24.1917 30.6227 24.2276 30.5868 24.2994L28 27.8204L25.4491 24.2994C25.3773 24.2276 25.3054 24.1917 25.2336 24.1917H23.5809C23.4372 24.1917 23.3294 24.2994 23.3294 24.4432V31.7006C23.3294 31.8443 23.4372 31.952 23.5809 31.952H25.4491C25.5929 31.952 25.7006 31.8443 25.7006 31.7006V27.9281C25.7637 28.0333 26.5163 29.0864 27.1583 29.9849C27.613 30.6213 28.0123 31.18 28.0719 31.2694C28.6088 30.4768 29.1639 29.7206 29.7114 28.9748C29.9332 28.6727 30.1537 28.3723 30.3712 28.0719V31.6646C30.3712 31.8083 30.479 31.9161 30.6227 31.9161H32.491C32.6347 31.9161 32.7425 31.8083 32.7425 31.6646Z" fill="var(--item--01)"/>
<path d="M27.4968 39.9998L33.7123 33.7484H39.7841L33.5327 39.9998H27.4968Z" fill="var(--item--01)"/>
<path d="M40.0002 33.5329H34.2518C33.8566 33.5329 33.5332 33.8562 33.5332 34.2514V39.9999L40.0002 33.5329Z" fill="var(--item--01)"/>
</svg>
