<svg width="56" height="56" viewBox="0 0 56 56" fill="none" xmlns="http://www.w3.org/2000/svg">
<rect width="56" height="56" rx="4" fill="var(--surface--00)"/>
<path fill-rule="evenodd" clip-rule="evenodd" d="M20 16C17.7909 16 16 17.7909 16 20V36C16 38.2091 17.7909 40 20 40H36C38.2091 40 40 38.2091 40 36V20C40 17.7909 38.2091 16 36 16H20ZM36.4221 33.4686C35.3339 33.441 34.4906 33.5519 33.7832 33.8567C33.7318 33.8776 33.6725 33.8933 33.6123 33.9092C33.4335 33.9565 33.2458 34.0062 33.2254 34.2031C33.2873 34.2661 33.3184 34.3514 33.3511 34.4412C33.3761 34.5096 33.402 34.5807 33.4431 34.6465C33.6065 34.9236 33.892 35.2978 34.1505 35.4919C34.4361 35.7136 34.7218 35.9352 35.021 36.1293C35.2814 36.2925 35.5581 36.4224 35.8336 36.5516L35.8336 36.5516C36.1194 36.6857 36.4038 36.8191 36.667 36.9884C36.8382 37.0993 37.0093 37.2284 37.1804 37.3575L37.1804 37.3575C37.3085 37.4541 37.4366 37.5508 37.5647 37.6397C37.6209 37.6813 37.6693 37.7326 37.7181 37.7842C37.7992 37.8701 37.881 37.9567 38 38V37.9584C37.9509 37.8941 37.9198 37.815 37.8883 37.7345C37.8586 37.6589 37.8285 37.5821 37.7824 37.515C37.7142 37.4455 37.646 37.3795 37.5778 37.3135L37.5778 37.3135L37.5777 37.3134C37.5099 37.2478 37.4421 37.1822 37.3743 37.1131C36.9798 36.5727 36.4901 36.1015 35.9596 35.7136C35.8471 35.6348 35.7001 35.5485 35.5408 35.4552C35.0839 35.1873 34.5264 34.8604 34.3953 34.4802L34.3681 34.4526C34.6367 34.4277 34.949 34.3359 35.2167 34.2572L35.2168 34.2572L35.3067 34.2308C35.5392 34.1681 35.7614 34.1439 35.9853 34.1196C36.2069 34.0955 36.4302 34.0711 36.667 34.0091C36.8846 33.9537 37.1023 33.8844 37.3199 33.8151V33.6904C37.2079 33.5763 37.1101 33.4448 37.0123 33.3131C36.8962 33.157 36.78 33.0006 36.6397 32.8728C35.946 32.263 35.1842 31.6672 34.3953 31.1684C34.1389 30.9999 33.8372 30.8672 33.5392 30.7362L33.5392 30.7361C33.3471 30.6517 33.1565 30.5679 32.9806 30.4756C32.9261 30.4477 32.8593 30.4245 32.7911 30.4008C32.6553 30.3537 32.5135 30.3045 32.4502 30.2122C32.2739 29.9928 32.1541 29.7233 32.0348 29.4551L32.0348 29.455C31.9884 29.3505 31.942 29.2462 31.8924 29.1452C31.4981 28.383 31.117 27.5378 30.777 26.7341C30.6878 26.5372 30.6112 26.3402 30.5355 26.1453L30.5354 26.1452L30.5354 26.1452C30.4033 25.8052 30.2735 25.4714 30.0833 25.1544C28.6823 22.7986 27.1587 21.3714 24.8191 19.9717C24.3596 19.7061 23.8208 19.579 23.2441 19.4429L23.078 19.4036C22.908 19.3967 22.738 19.3863 22.568 19.3759C22.3979 19.3655 22.2278 19.3551 22.0578 19.3482C21.9287 19.2906 21.7997 19.1746 21.6763 19.0637C21.5916 18.9876 21.5095 18.9139 21.432 18.8632C20.6568 18.3642 18.6571 17.2835 18.0858 18.7108C17.7807 19.4589 18.3579 20.1975 18.7414 20.6883L18.7414 20.6883C18.8196 20.7884 18.8898 20.8782 18.9428 20.9556C18.9919 21.0233 19.0441 21.0928 19.0973 21.1639L19.0973 21.1639C19.295 21.4273 19.508 21.7111 19.6365 21.9949C19.6853 22.1156 19.7163 22.2399 19.7476 22.3661C19.7775 22.4861 19.8077 22.6077 19.8541 22.7293C19.9061 22.8749 19.9573 23.0244 20.009 23.1754L20.009 23.1754C20.1739 23.6569 20.344 24.1537 20.5615 24.5862C20.7112 24.8772 20.8743 25.1821 21.0648 25.4453C21.101 25.496 21.1461 25.5374 21.1918 25.5794L21.1918 25.5794C21.2836 25.6637 21.3776 25.75 21.4049 25.9165C21.2807 26.0972 21.2317 26.3369 21.1825 26.5778L21.1825 26.5778C21.1562 26.7064 21.1298 26.8353 21.0919 26.9558C20.6023 28.5216 20.7928 30.4617 21.4865 31.6118C21.7041 31.9581 22.221 32.7204 22.9147 32.4294C23.3523 32.2511 23.4076 31.7966 23.4681 31.2988C23.4922 31.1003 23.5172 30.8948 23.5676 30.6972C23.5825 30.6369 23.5883 30.5838 23.5937 30.5354C23.6031 30.4505 23.6109 30.3799 23.6629 30.3093V30.337C23.7102 30.4335 23.7576 30.5292 23.8048 30.6244C23.9472 30.912 24.0877 31.1957 24.2205 31.4871C24.6423 32.1661 25.3768 32.8728 25.9889 33.344C26.1088 33.4356 26.2195 33.5514 26.3318 33.6689C26.5254 33.8715 26.7237 34.0789 26.9819 34.1754V34.1338H26.9547C26.901 34.0517 26.8296 33.9997 26.7561 33.9461C26.7179 33.9182 26.6791 33.8899 26.6419 33.8567C26.397 33.6072 26.1249 33.3024 25.9345 33.0252C25.3633 32.2492 24.8599 31.3901 24.411 30.5032C24.2092 30.1049 24.0307 29.6707 23.8649 29.2672L23.8261 29.1729C23.7963 29.1122 23.7773 29.0403 23.7587 28.9695C23.7263 28.8466 23.6947 28.7269 23.6084 28.6741C23.5371 28.7807 23.4541 28.8821 23.37 28.985L23.37 28.9851C23.2135 29.1765 23.0529 29.373 22.9555 29.6164C22.7512 30.0877 22.6914 30.6457 22.6282 31.2356C22.6115 31.3914 22.5946 31.5495 22.5747 31.7088C22.5596 31.7127 22.5508 31.7144 22.5453 31.7154C22.5401 31.7165 22.538 31.7169 22.5364 31.718C22.5353 31.7188 22.5345 31.7198 22.5332 31.7216C22.5311 31.7244 22.5277 31.7289 22.5202 31.7365C22.1239 31.6355 21.9643 31.2473 21.8157 30.8857C21.8011 30.8502 21.7867 30.815 21.7721 30.7803C21.364 29.7965 21.296 28.2168 21.6497 27.0805C21.6678 27.0253 21.6971 26.9477 21.7316 26.8562C21.8792 26.4655 22.122 25.8224 21.9898 25.5978C21.9384 25.4321 21.8116 25.3103 21.6874 25.191L21.6874 25.191C21.6142 25.1207 21.5419 25.0513 21.4865 24.9742C21.3096 24.7109 21.1192 24.3784 20.9968 24.0873C20.8445 23.7253 20.7277 23.3452 20.6105 22.9639L20.6105 22.9639C20.4765 22.5278 20.3421 22.0902 20.1534 21.6761C20.0197 21.381 19.8039 21.0767 19.6032 20.7935L19.6032 20.7935C19.5588 20.7309 19.5151 20.6694 19.4733 20.6092C19.3856 20.4823 19.2949 20.3681 19.2052 20.2554L19.2052 20.2554L19.2052 20.2554C19.0305 20.0357 18.86 19.8213 18.7251 19.5283C18.6572 19.3759 18.5619 19.1265 18.6707 18.9602C18.6979 18.8493 18.7523 18.8078 18.8612 18.78C19.038 18.6276 19.5413 18.8216 19.7181 18.9047C20.2214 19.1125 20.6431 19.3066 21.0648 19.5976C21.1269 19.6428 21.1905 19.7013 21.2565 19.762L21.2565 19.762C21.3927 19.8873 21.5391 20.0221 21.7041 20.0687H21.9898C22.1902 20.1134 22.4022 20.1228 22.6124 20.1321H22.6124C22.8587 20.143 23.1026 20.1539 23.3228 20.2211C24.0438 20.4566 24.6966 20.8032 25.2816 21.1773C27.0636 22.3274 28.5326 23.9627 29.5256 25.9165C29.6172 26.0953 29.6788 26.2654 29.7417 26.4391C29.7908 26.5749 29.8408 26.7128 29.9065 26.8588C30.0572 27.217 30.2269 27.5792 30.3955 27.939L30.3955 27.939C30.5464 28.2612 30.6965 28.5816 30.8314 28.8958C30.8582 28.9568 30.8848 29.0179 30.9114 29.079C31.1692 29.6705 31.4273 30.2628 31.7972 30.7527C31.9408 30.9574 32.3875 31.0936 32.7676 31.2094L32.7676 31.2094C32.9276 31.2582 33.0758 31.3034 33.1847 31.3485C33.2911 31.3973 33.4206 31.444 33.5534 31.4919L33.5534 31.492C33.7598 31.5664 33.9743 31.6438 34.1233 31.7365C34.5857 32.0274 35.0482 32.3601 35.4835 32.6788C35.5382 32.7206 35.6221 32.7737 35.7177 32.8343L35.7178 32.8343C36.0027 33.0148 36.3915 33.2612 36.4221 33.4686ZM22.5125 21C22.3 21 22.15 21.0418 22 21.1043V21.146H22.025C22.0861 21.3495 22.1751 21.5142 22.2636 21.6779L22.2636 21.6779C22.32 21.7824 22.3763 21.8865 22.425 22C22.4751 22.1669 22.522 22.3338 22.5689 22.5007C22.6157 22.6671 22.6626 22.8336 22.7125 23L22.7375 22.9583C22.9126 22.7499 23 22.4166 23 21.9168C22.9583 21.8357 22.9359 21.7547 22.9135 21.6736L22.9135 21.6736C22.8956 21.6088 22.8778 21.544 22.85 21.4792C22.8047 21.3534 22.7275 21.2656 22.6515 21.1791L22.6514 21.1791C22.6015 21.1223 22.5521 21.0661 22.5125 21Z" fill="var(--item--01)"/>
</svg>
