<svg width="56" height="56" viewBox="0 0 56 56" fill="none" xmlns="http://www.w3.org/2000/svg">
<rect width="56" height="56" rx="4" fill="var(--surface--00)"/>
<rect width="40" height="40" transform="translate(8 8)" fill="var(--surface--00)"/>
<g clip-path="url(#clip0_252_4591)">
<path d="M26.92 15.1197C27.5725 14.7462 28.4225 14.7445 29.0744 15.1197C32.3545 16.9731 35.6356 18.8236 38.9151 20.6781C39.5319 21.0256 39.9445 21.7121 39.9382 22.4228V33.5736C39.9428 34.3138 39.4895 35.0167 38.8387 35.3563C35.5694 37.1995 32.3018 39.0449 29.0331 40.8881C28.3671 41.2689 27.5001 41.2396 26.8548 40.8275C25.8747 40.2594 24.8929 39.694 23.9127 39.1264C23.7124 39.0069 23.4866 38.9119 23.3451 38.7177C23.4702 38.5492 23.6937 38.5282 23.8754 38.4546C24.2845 38.3245 24.6602 38.1157 25.0361 37.913C25.1311 37.848 25.2472 37.8729 25.3383 37.9311C26.1764 38.4117 27.0071 38.9062 27.8481 39.3821C28.0275 39.4857 28.2091 39.3482 28.3625 39.2627C31.5706 37.4495 34.7828 35.6432 37.9904 33.8294C38.1092 33.7722 38.1749 33.6461 38.1653 33.5159C38.1675 29.8375 38.1658 26.1584 38.1664 22.48C38.18 22.3323 38.0945 22.1965 37.9609 22.136C34.703 20.3012 31.4467 18.4637 28.1893 16.6285C28.1329 16.5897 28.0661 16.5688 27.9976 16.5687C27.9291 16.5686 27.8622 16.5893 27.8056 16.6279C24.5482 18.4637 21.2925 20.3029 18.0352 22.1376C17.9021 22.1981 17.8127 22.3317 17.8286 22.48C17.8291 26.1584 17.8286 29.8375 17.8286 33.5165C17.8229 33.58 17.8369 33.6437 17.8686 33.6991C17.9002 33.7544 17.9481 33.7987 18.0057 33.826C18.875 34.319 19.7454 34.8084 20.6152 35.2997C21.1052 35.5634 21.7068 35.7201 22.2467 35.518C22.7231 35.3472 23.0571 34.861 23.048 34.3551C23.0525 30.6982 23.0458 27.0407 23.0514 23.3843C23.0395 23.222 23.1935 23.0878 23.3513 23.1031C23.769 23.1003 24.1872 23.0975 24.6049 23.1042C24.7792 23.1003 24.8992 23.2751 24.8776 23.4387C24.8759 27.1188 24.8821 30.799 24.8748 34.4791C24.8759 35.4598 24.473 36.527 23.5658 37.0069C22.4481 37.5859 21.0668 37.4631 19.9626 36.908C19.0068 36.4309 18.0946 35.8678 17.1557 35.3567C16.5032 35.019 16.0521 34.3133 16.0567 33.5737V22.4228C16.0499 21.6974 16.4789 20.9984 17.1149 20.656C20.3837 18.8113 23.6518 16.9652 26.92 15.1197Z" fill="var(--item--01)"/>
<path d="M29.7717 22.8439C31.1973 22.7521 32.7235 22.7895 34.0064 23.4919C34.9996 24.03 35.5503 25.1596 35.5678 26.2631C35.5401 26.4119 35.3845 26.494 35.2424 26.4838C34.8287 26.4832 34.415 26.4894 34.0014 26.481C33.8259 26.4877 33.724 26.326 33.7019 26.1708C33.5831 25.6429 33.2951 25.1199 32.7982 24.8653C32.0353 24.4833 31.1508 24.5025 30.3189 24.5105C29.7117 24.5428 29.0587 24.5953 28.5442 24.9524C28.1492 25.2229 28.0292 25.769 28.1702 26.2088C28.3031 26.5246 28.6676 26.6265 28.9659 26.7204C30.6839 27.1697 32.5045 27.125 34.1898 27.7163C34.8875 27.9574 35.57 28.4261 35.8089 29.1566C36.1213 30.1357 35.9843 31.306 35.2877 32.092C34.7228 32.7388 33.9001 33.0909 33.0795 33.2821C31.9878 33.5255 30.8549 33.5317 29.7463 33.4236C28.7038 33.3048 27.619 33.0309 26.8142 32.3206C26.1261 31.7231 25.7899 30.7921 25.8233 29.8935C25.8313 29.7417 25.9824 29.6359 26.1277 29.6484C26.5443 29.645 26.9608 29.6439 27.3773 29.6489C27.5437 29.637 27.6671 29.7808 27.6756 29.9376C27.7524 30.4407 27.9415 30.9687 28.3802 31.2669C29.2267 31.8131 30.289 31.7757 31.2583 31.7909C32.0614 31.7553 32.9629 31.7445 33.6182 31.2138C33.964 30.911 34.0664 30.4045 33.973 29.9688C33.8718 29.6009 33.4869 29.4294 33.1564 29.3173C31.4604 28.7808 29.6194 28.9755 27.9398 28.3688C27.2579 28.1278 26.5985 27.6722 26.3366 26.9717C25.971 25.9802 26.1385 24.7538 26.9081 23.9943C27.6585 23.2389 28.7418 22.948 29.7717 22.8439Z" fill="var(--item--01)"/>
</g>
<defs>
<clipPath id="clip0_252_4591">
<rect width="24" height="26.4317" fill="var(--surface--00)" transform="translate(16 14.7841)"/>
</clipPath>
</defs>
</svg>
