<svg width="56" height="56" viewBox="0 0 56 56" fill="none" xmlns="http://www.w3.org/2000/svg">
<rect width="56" height="56" rx="4" fill="var(--surface--00)"/>
<rect width="40" height="40" transform="translate(8 8)" fill="var(--surface--00)"/>
<path fill-rule="evenodd" clip-rule="evenodd" d="M20.8 16C18.149 16 16 18.149 16 20.8V35.2C16 37.851 18.149 40 20.8 40H35.2C37.851 40 40 37.851 40 35.2V20.8C40 18.149 37.851 16 35.2 16H20.8ZM32.02 22.6H24.1C22.6678 22.6 21.2943 23.1689 20.2816 24.1816C19.2689 25.1943 18.7 26.5678 18.7 28C18.7 29.4322 19.2689 30.8057 20.2816 31.8184C21.2943 32.8311 22.6678 33.4 24.1 33.4H32.02C33.4522 33.4 34.8257 32.8311 35.8384 31.8184C36.8511 30.8057 37.42 29.4322 37.42 28C37.42 26.5678 36.8511 25.1943 35.8384 24.1816C34.8257 23.1689 33.4522 22.6 32.02 22.6ZM32.02 32.68H24.1C22.8588 32.68 21.6684 32.1869 20.7907 31.3093C19.9131 30.4316 19.42 29.2412 19.42 28C19.42 26.7588 19.9131 25.5684 20.7907 24.6907C21.6684 23.8131 22.8588 23.32 24.1 23.32H32.02C33.2612 23.32 34.4516 23.8131 35.3293 24.6907C36.2069 25.5684 36.7 26.7588 36.7 28C36.7 29.2412 36.2069 30.4316 35.3293 31.3093C34.4516 32.1869 33.2612 32.68 32.02 32.68ZM21.7856 28.0085C21.7856 29.391 22.8611 30.4332 24.2881 30.4332C25.6993 30.4332 26.8045 29.3626 26.8045 27.9807C26.8045 26.5987 25.7285 25.5565 24.302 25.5565C22.8908 25.5565 21.7856 26.6338 21.7856 28.0085ZM22.6933 27.9807C22.6933 27.0393 23.3786 26.3296 24.2881 26.3296C25.1899 26.3296 25.8968 27.0672 25.8968 28.0085C25.8968 28.95 25.211 29.6601 24.302 29.6601C23.3998 29.6601 22.6933 28.9221 22.6933 27.9807ZM31.9107 30.0277C31.9926 30.2635 32.1509 30.3935 32.3571 30.3935L32.4678 30.3945C32.673 30.3945 32.8381 30.2608 32.9227 30.0273L34.2974 26.1699C34.3175 26.1136 34.3295 26.0548 34.333 25.9952C34.3327 25.9409 34.3215 25.8872 34.3001 25.8373C34.2787 25.7874 34.2476 25.7422 34.2085 25.7045C34.1695 25.6668 34.1232 25.6372 34.0726 25.6176C34.0219 25.598 33.9679 25.5887 33.9136 25.5903C33.8211 25.5904 33.731 25.6204 33.6569 25.6758C33.5827 25.7312 33.5284 25.8089 33.5019 25.8976L32.4218 29.2388L31.3302 25.926C31.2564 25.7 31.1002 25.5759 30.8905 25.5759H30.8059C30.6007 25.5759 30.4405 25.7036 30.3663 25.926L29.275 29.2388L28.1919 25.8967C28.1651 25.8071 28.1098 25.7287 28.0345 25.6734C27.9591 25.6181 27.8677 25.5889 27.7743 25.5903C27.5272 25.5903 27.3337 25.7711 27.3337 26.0029C27.3374 26.0595 27.3492 26.1153 27.3688 26.1685L28.7418 30.0273C28.8264 30.2594 28.992 30.3945 29.1972 30.3945H29.3088C29.5171 30.3945 29.6764 30.2644 29.7588 30.0286L30.8338 26.9029L31.9107 30.0277Z" fill="var(--item--01)"/>
</svg>
