<svg width="56" height="56" viewBox="0 0 56 56" fill="none" xmlns="http://www.w3.org/2000/svg">
<rect width="56" height="56" rx="4" fill="var(--surface--00)"/>
<rect width="40" height="40" transform="translate(8 8)" fill="var(--surface--00)"/>
<path fill-rule="evenodd" clip-rule="evenodd" d="M18 16C16.8954 16 16 16.8954 16 18V38C16 39.1046 16.8954 40 18 40H38C39.1046 40 40 39.1046 40 38V18C40 16.8954 39.1046 16 38 16H18ZM19.5166 25.0587L18 33H19.801L20.1802 30.9412H21.8861C23.4976 31.0392 25.2985 29.6667 25.2985 27.3137C25.2985 25.941 24.5401 25.1568 23.0236 25.0587H19.5166ZM21.0332 26.5294L20.5592 29.4706H21.6967C22.5497 29.3726 23.308 29.0785 23.4028 27.4117C23.4028 26.8235 22.9289 26.5294 22.2654 26.5294H21.0332ZM26.4626 23L24.9461 30.9412H26.7471L27.6001 26.5294H29.022C29.6854 26.5294 29.6854 26.8235 29.5907 27.3137L28.9271 30.9412H30.8228L31.4864 26.9215C31.6759 25.941 31.1072 25.1568 29.5905 25.0587H27.8845L28.2636 23H26.4626ZM32.218 25.0587L30.7014 33H32.5023L32.8815 30.9412H34.5877C36.199 31.0392 38 29.6667 38 27.3137C38 25.941 37.2417 25.1568 35.725 25.0587H32.218ZM33.7345 26.5294L33.2605 29.4706H34.3981C35.2512 29.3726 36.0095 29.0785 36.1042 27.4117C36.1042 26.8235 35.6303 26.5294 34.9668 26.5294H33.7345Z" fill="var(--item--01)"/>
</svg>
