<svg width="56" height="56" viewBox="0 0 56 56" fill="none" xmlns="http://www.w3.org/2000/svg">
<rect width="56" height="56" rx="4" fill="var(--surface--00)"/>
<rect width="40" height="40" transform="translate(8 8)" fill="var(--surface--00)"/>
<g clip-path="url(#clip0_252_4591)">
<path d="M39.978 28.0025C39.978 26.4155 37.9906 24.9116 34.9437 23.979C35.6468 20.8734 35.3343 18.4027 33.9574 17.6117C33.64 17.4261 33.2689 17.3382 32.8636 17.3382V18.4271C33.0882 18.4271 33.2689 18.4711 33.4202 18.5541C34.0843 18.9349 34.3724 20.3852 34.1478 22.2504C34.0941 22.7094 34.0062 23.1928 33.8988 23.686C32.9417 23.4516 31.8968 23.271 30.7981 23.1538C30.1389 22.2504 29.4553 21.4301 28.7668 20.7123C30.3587 19.2328 31.8528 18.4222 32.8685 18.4222V17.3333C31.5257 17.3333 29.7678 18.2904 27.9905 19.9506C26.2131 18.3002 24.4552 17.3529 23.1124 17.3529V18.4418C24.1232 18.4418 25.6222 19.2474 27.2141 20.7172C26.5305 21.435 25.8469 22.2504 25.1974 23.1538C24.0939 23.271 23.049 23.4516 22.0919 23.6909C21.9796 23.2026 21.8966 22.7289 21.838 22.2748C21.6085 20.4096 21.8917 18.9593 22.5509 18.5736C22.6974 18.4857 22.8878 18.4466 23.1124 18.4466V17.3578C22.7023 17.3578 22.3312 17.4457 22.0089 17.6312C20.6368 18.4222 20.3292 20.8881 21.0372 23.9839C18 24.9214 16.0225 26.4204 16.0225 28.0025C16.0225 29.5894 18.0098 31.0934 21.0567 32.026C20.3536 35.1315 20.6661 37.6023 22.0431 38.3933C22.3605 38.5788 22.7316 38.6667 23.1417 38.6667C24.4845 38.6667 26.2424 37.7097 28.0198 36.0495C29.7971 37.6999 31.555 38.6472 32.8978 38.6472C33.3079 38.6472 33.679 38.5593 34.0013 38.3738C35.3734 37.5827 35.681 35.1169 34.973 32.0211C38.0004 31.0885 39.978 29.5845 39.978 28.0025ZM33.6204 24.7456C33.4398 25.3755 33.2152 26.0249 32.9612 26.6743C32.761 26.2837 32.5511 25.8931 32.3216 25.5024C32.097 25.1118 31.8577 24.7309 31.6185 24.3598C32.3118 24.4624 32.9808 24.5893 33.6204 24.7456ZM31.3841 29.9459C31.0032 30.6051 30.6126 31.2301 30.2073 31.8111C29.4797 31.8746 28.7424 31.9088 28.0002 31.9088C27.2629 31.9088 26.5256 31.8746 25.8029 31.816C25.3976 31.235 25.0021 30.6148 24.6213 29.9605C24.2502 29.3209 23.9132 28.6714 23.6056 28.0171C23.9083 27.3628 24.2502 26.7085 24.6164 26.0689C24.9972 25.4097 25.3879 24.7847 25.7931 24.2036C26.5207 24.1401 27.258 24.1059 28.0002 24.1059C28.7375 24.1059 29.4749 24.1401 30.1975 24.1987C30.6028 24.7798 30.9983 25.3999 31.3792 26.0542C31.7503 26.6939 32.0872 27.3433 32.3948 27.9976C32.0872 28.6519 31.7503 29.3062 31.3841 29.9459ZM32.9612 29.3111C33.2249 29.9654 33.4495 30.6197 33.6351 31.2545C32.9954 31.4107 32.3216 31.5426 31.6233 31.6451C31.8626 31.2691 32.1019 30.8834 32.3265 30.4879C32.5511 30.0972 32.761 29.7017 32.9612 29.3111ZM28.01 34.5212C27.5559 34.0524 27.1018 33.5299 26.6525 32.9586C27.092 32.9782 27.5412 32.9928 27.9953 32.9928C28.4543 32.9928 28.9084 32.983 29.3528 32.9586C28.9133 33.5299 28.4592 34.0524 28.01 34.5212ZM24.3771 31.6451C23.6837 31.5426 23.0148 31.4156 22.3751 31.2594C22.5558 30.6295 22.7804 29.9801 23.0343 29.3306C23.2345 29.7213 23.4445 30.1119 23.674 30.5025C23.9035 30.8932 24.1378 31.274 24.3771 31.6451ZM27.9856 21.4838C28.4397 21.9526 28.8938 22.475 29.343 23.0463C28.9036 23.0268 28.4543 23.0122 28.0002 23.0122C27.5412 23.0122 27.0871 23.0219 26.6428 23.0463C27.0822 22.475 27.5363 21.9526 27.9856 21.4838ZM24.3722 24.3598C24.133 24.7358 23.8937 25.1216 23.6691 25.5171C23.4445 25.9077 23.2345 26.2984 23.0343 26.689C22.7706 26.0347 22.546 25.3804 22.3605 24.7456C23.0001 24.5942 23.674 24.4624 24.3722 24.3598ZM19.9532 30.4732C18.2247 29.7359 17.1065 28.7691 17.1065 28.0025C17.1065 27.2359 18.2247 26.2642 19.9532 25.5317C20.3731 25.3511 20.8321 25.1899 21.3058 25.0386C21.5841 25.9956 21.9503 26.9917 22.4044 28.0122C21.9552 29.0279 21.5939 30.0191 21.3204 30.9713C20.837 30.8199 20.378 30.6539 19.9532 30.4732ZM22.5802 37.4509C21.9161 37.07 21.628 35.6198 21.8526 33.7545C21.9064 33.2955 21.9943 32.8121 22.1017 32.319C23.0587 32.5533 24.1037 32.734 25.2023 32.8512C25.8615 33.7545 26.5451 34.5749 27.2336 35.2927C25.6418 36.7722 24.1476 37.5827 23.132 37.5827C22.9122 37.5779 22.7267 37.5339 22.5802 37.4509ZM34.1624 33.7301C34.3919 35.5954 34.1087 37.0456 33.4495 37.4314C33.303 37.5193 33.1126 37.5583 32.888 37.5583C31.8772 37.5583 30.3782 36.7526 28.7864 35.2829C29.47 34.5651 30.1536 33.7497 30.803 32.8463C31.9065 32.7291 32.9515 32.5485 33.9085 32.3092C34.0208 32.8024 34.1087 33.276 34.1624 33.7301ZM36.0424 30.4732C35.6224 30.6539 35.1634 30.815 34.6898 30.9664C34.4115 30.0094 34.0453 29.0132 33.5911 27.9927C34.0404 26.9771 34.4017 25.9858 34.6751 25.0337C35.1586 25.185 35.6175 25.3511 36.0472 25.5317C37.7758 26.2691 38.894 27.2359 38.894 28.0025C38.8891 28.7691 37.7709 29.7408 36.0424 30.4732Z" fill="var(--item--01)"/>
<path d="M27.9954 30.2339C29.2278 30.2339 30.2269 29.2349 30.2269 28.0025C30.2269 26.77 29.2278 25.771 27.9954 25.771C26.763 25.771 25.7639 26.77 25.7639 28.0025C25.7639 29.2349 26.763 30.2339 27.9954 30.2339Z" fill="var(--item--01)"/>
</g>
<defs>
<clipPath id="clip0_252_4591">
<rect width="24" height="21.3333" fill="var(--item--01)" transform="translate(16 17.3333)"/>
</clipPath>
</defs>
</svg>
