<svg width="56" height="56" viewBox="0 0 56 56" fill="none" xmlns="http://www.w3.org/2000/svg">
<rect width="56" height="56" rx="4" fill="var(--surface--00)"/>
<rect width="40" height="40" transform="translate(8 8)" fill="var(--surface--00)"/>
<g clip-path="url(#clip0_252_4591)">
<path d="M23.3753 31.0496C22.9394 31.3221 22.2826 31.7639 21.7744 32.2443C20.9403 33.032 20.7657 34.1248 21.2057 34.3801C21.6128 34.616 22.5632 34.3353 23.2433 33.5933C23.9571 32.8144 24.2515 31.8271 23.9475 30.7062C23.9118 30.7275 23.8767 30.7489 23.8423 30.7687L23.843 30.7703L23.7969 30.7964C23.6194 30.9023 23.4744 30.9898 23.3753 31.0495V31.0496ZM35.6257 30.6959C35.3788 31.2326 35.3664 31.4052 35.4414 31.459C35.7997 31.3303 36.3925 31.0201 36.3972 30.1887C36.3979 30.0642 36.3705 29.9307 36.3264 29.791C35.9433 30.1302 35.7226 30.4853 35.6257 30.6959ZM39.4704 29.0734C38.5132 28.9619 37.7663 29.0961 37.1867 29.3376C37.294 29.617 37.3765 29.9079 37.3881 30.2011C37.415 30.8445 36.9722 31.3206 36.5106 31.6607C36.2411 31.8589 35.9543 31.9909 35.7136 32.0707C35.5211 32.1518 35.2653 32.2357 35.0837 32.1987C34.6833 32.1173 34.4703 31.7618 34.7426 30.9773C34.8897 30.5528 35.314 29.9067 35.9989 29.35C35.8428 29.0286 35.6688 28.7013 35.5802 28.4003C35.4054 27.8073 35.3526 27.4488 35.3526 27.4488C35.3526 27.4488 34.7881 28.6193 34.0597 29.6838C34.0177 29.7456 33.9758 29.8062 33.9338 29.8667C34.0769 30.1992 34.1896 30.5508 34.2048 30.9051C34.2317 31.5485 33.9531 32.035 33.4909 32.3742C33.2407 32.5587 32.9738 32.6861 32.7448 32.7672C32.5983 32.831 32.3005 32.9363 31.8769 32.9646C31.6453 32.9805 31.4224 32.9661 31.298 32.8718C31.1268 32.7424 31.1061 32.5827 31.1948 32.3646C31.2698 32.1794 31.8309 31.5389 32.3013 30.9781C32.4267 30.8279 32.5482 30.6747 32.6658 30.5184L32.663 30.5122C32.663 30.5122 32.7483 30.4023 32.8865 30.2103C32.7146 29.8399 32.4966 29.4546 32.3942 29.1051C32.2194 28.512 32.1665 28.1535 32.1665 28.1535C32.1665 28.1535 31.5943 29.6206 30.9981 30.7916C30.5368 31.6986 30.2286 32.2483 30.0898 32.4892L30.0884 32.4989C30.0884 32.4989 30.0677 32.534 30.0319 32.5891L30.0052 32.6337L30.0045 32.6296C29.8497 32.8581 29.5024 33.3059 29.1572 33.3059C28.2096 33.3059 28.5575 31.3813 28.5575 31.3813C28.5575 31.3813 28.2805 32.0943 27.9682 32.706C27.7139 33.2047 27.4821 33.6274 26.9753 33.6274C26.8295 33.6274 26.5984 33.6232 26.4065 33.4408C25.9712 33.0273 25.6384 31.9772 25.7037 31.1639C25.7594 30.4724 25.866 29.9933 26.0117 29.5938C25.7204 29.7523 25.4315 29.9154 25.1453 30.083L24.6749 30.3603L24.6901 30.3878C25.0792 31.1406 25.1831 32.79 24.3345 34.056C23.4859 35.3227 21.9063 36.0934 20.3673 35.6655C19.8707 35.5272 19.1206 34.4999 19.7676 33.0679C20.3384 31.8051 22.6194 30.6114 23.2205 30.3135L23.3855 30.2225C22.187 29.1739 19.1942 27.7593 18.7747 25.5862C18.6564 24.9745 18.9432 23.5115 20.7393 21.8299C22.2501 20.4158 24.3517 19.3327 26.2931 18.6425C29.5547 17.4832 33.0007 18.167 33.5309 20.2466C34.0521 22.2917 32.278 24.7379 30.0059 25.6173C27.9772 26.4023 26.2999 26.2778 25.6109 26.0515C24.8276 25.7942 24.3682 25.2773 24.2562 24.9856C24.2121 24.8713 24.1364 24.6794 24.2562 24.6134C24.3297 24.5727 24.3592 24.5824 24.5559 24.7999C24.743 25.0063 25.4953 25.5602 26.9243 25.3999C30.6743 24.9795 32.9332 22.0639 32.2194 20.4949C31.7195 19.3969 28.8292 18.9014 25.2182 20.7021C20.8101 22.8998 20.5709 24.7116 20.5331 25.3998C20.4299 27.2928 22.8677 28.2885 24.1867 29.6962L24.2375 29.752C24.4844 29.6158 24.7451 29.472 25.0008 29.3316C25.5287 29.0417 26.0568 28.7524 26.5853 28.4637C27.0496 27.789 27.9916 27.0443 28.6717 27.0443C29.7589 27.0443 29.3855 28.6069 29.3855 28.6069C29.3855 28.6069 29.4076 28.5355 29.4371 28.5348C29.468 28.534 29.5878 28.3289 29.9234 28.4513C30.2686 28.5781 30.1901 28.8203 30.1923 28.8451C30.1964 28.8931 29.7844 30.2824 29.6132 31.1735C29.5313 31.5988 29.5788 31.9085 29.6029 31.9085C29.6366 31.9085 29.7054 31.8004 29.7693 31.6842L29.7679 31.6807C29.7679 31.6807 29.816 31.5926 29.8966 31.4344L29.9124 31.4014L29.9131 31.4029C30.0463 31.1399 30.1738 30.8739 30.2954 30.6053C30.5972 29.94 31.7491 27.3711 31.8467 27.0871C31.9443 26.8029 31.9953 26.509 32.0434 26.383C32.0909 26.2571 32.498 26.1621 32.9738 26.1656C33.4497 26.1691 33.498 26.3721 33.5012 26.414C33.5047 26.4559 33.275 27.0197 33.2221 27.418C33.1698 27.8164 33.2201 28.0152 33.2634 28.3497C33.2916 28.5684 33.4284 28.8458 33.5901 29.1602C34.0825 28.355 34.9488 26.8152 35.0321 26.3838C35.0891 26.0886 35.1806 25.8058 35.2288 25.6797C35.2769 25.5538 35.6834 25.4589 36.1592 25.4623C36.635 25.4659 36.6831 25.6688 36.6866 25.7107C36.6901 25.7527 36.4596 26.3164 36.4074 26.7148C36.3551 27.1125 36.4054 27.312 36.4487 27.6465C36.4859 27.9326 36.7072 28.3173 36.9267 28.7548C37.5256 28.4597 38.2305 28.2616 39.0557 28.2574C39.3975 28.2554 39.7943 28.2897 39.9993 28.3536V21.7708C39.9993 21.3064 39.7612 20.8783 39.359 20.6464L28.6202 14.4395C28.4235 14.3256 28.2002 14.2656 27.9728 14.2656C27.7455 14.2656 27.5221 14.3256 27.3254 14.4395L16.6162 20.6434C16.2146 20.8754 16 21.304 16 21.7677V34.1868C16 34.6504 16.2159 35.0792 16.6169 35.311L27.3433 41.5196C27.539 41.6339 27.7616 41.6941 27.9883 41.6941C28.2149 41.6941 28.4375 41.6339 28.6333 41.5196L39.3646 35.3109C39.7661 35.0784 40 34.6503 40 34.1867V29.1677C39.8638 29.1275 39.6644 29.096 39.4704 29.0734ZM27.9174 28.423C27.6871 28.681 27.2944 29.3464 27.1108 29.9033C26.7456 31.0089 26.9038 32.1327 27.1623 32.2002C27.4642 32.2792 27.9594 30.8013 28.1965 30.2232C28.3451 29.8611 28.9228 28.2545 28.7962 28.0399C28.6974 27.872 28.2881 28.0076 27.9174 28.4231V28.423ZM32.0952 32.1498C32.0952 32.1498 32.0223 32.2188 32.0538 32.2379C32.0965 32.2634 32.1887 32.2304 32.2891 32.178C32.5731 31.9993 33.2105 31.5533 33.2119 30.8934C33.2119 30.8741 33.2112 30.8555 33.2099 30.8356C33.0782 31.0083 32.9443 31.1794 32.8082 31.3489C32.6074 31.5987 32.0952 32.1498 32.0952 32.1498Z" fill="var(--item--01)"/>
</g>
<defs>
<clipPath id="clip0_252_4591">
<rect width="24" height="27.4725" fill="var(--surface--00)" transform="translate(16 14.2637)"/>
</clipPath>
</defs>
</svg>
