<svg width="56" height="56" viewBox="0 0 56 56" fill="none" xmlns="http://www.w3.org/2000/svg">
<rect width="56" height="56" rx="4" fill="var(--surface--00)"/>
<rect width="40" height="40" transform="translate(8 8)" fill="var(--surface--00)"/>
<g clip-path="url(#clip0_252_4591)">
<path d="M26.5754 39.9846C24.3288 39.8227 22.1085 39.2572 20.7467 38.5002C19.971 38.069 19.3801 37.5391 19.1482 37.0668L19.0103 36.7858V27.9716V19.1574L19.1194 18.9358C19.6073 17.9452 21.1643 17.0523 23.3379 16.5165C24.0757 16.3346 25.1408 16.1535 26.0098 16.0622C26.8971 15.9689 29.2489 15.9831 30.134 16.0872C32.4865 16.3636 34.4882 16.9823 35.7218 17.8144C36.1976 18.1353 36.6857 18.6487 36.8511 19.0021L36.9929 19.3051L36.9808 28.0927L36.9686 36.8802L36.8548 37.1115C36.7922 37.2386 36.6031 37.4889 36.4346 37.6674C35.4089 38.7548 33.2086 39.5592 30.3226 39.9019C29.7344 39.9718 27.1789 40.0282 26.5754 39.9846ZM30.7154 32.4321C30.7067 32.4095 30.3709 32.1104 29.9691 31.7672C29.5673 31.424 29.2212 31.1271 29.2 31.1074C29.1789 31.0877 29.2531 31.0179 29.365 30.9523C29.4769 30.8867 29.6913 30.7042 29.8414 30.5468C30.2804 30.0865 30.4876 29.5178 30.4876 28.7729C30.4876 28.0396 30.2642 27.448 29.8167 26.9963C29.3657 26.5411 28.8479 26.3455 28.0939 26.3455C26.9316 26.3455 26.0389 27.0237 25.754 28.1232C25.656 28.5014 25.6565 29.2656 25.755 29.601C26.012 30.4757 26.7117 31.1111 27.5827 31.2602C27.8774 31.3107 27.9173 31.3325 28.1182 31.5522C28.2376 31.6827 28.4827 31.9433 28.6628 32.1313L28.9902 32.473H29.8607C30.3394 32.473 30.724 32.4546 30.7154 32.4321ZM27.7303 29.9949C27.5207 29.8856 27.4415 29.8008 27.322 29.5579C27.2297 29.3703 27.2139 29.2635 27.2129 28.8201C27.2119 28.3694 27.2262 28.2721 27.3226 28.0764C27.4802 27.7562 27.6975 27.6046 28.0336 27.5803C28.5015 27.5464 28.7715 27.776 28.913 28.3278C29.0866 29.0043 28.8957 29.7236 28.4794 29.9623C28.261 30.0875 27.9352 30.1017 27.7303 29.9949ZM23.8721 31.2506C24.7847 31.0776 25.3027 30.5468 25.3027 29.785C25.3027 29.1091 24.9683 28.7152 24.0439 28.3026C23.5147 28.0663 23.3231 27.9181 23.3231 27.7448C23.3231 27.6012 23.505 27.4439 23.7167 27.4043C23.9235 27.3657 24.4718 27.461 24.7956 27.5918L25.0671 27.7014V27.1006V26.4998L24.7725 26.4344C24.5904 26.394 24.2078 26.3698 23.7708 26.371C23.1519 26.371 23.0307 26.3861 22.7978 26.4786C22.1174 26.7487 21.7945 27.2088 21.7997 27.9009C21.8045 28.5489 22.1463 28.953 22.997 29.3166C23.499 29.5312 23.7002 29.6945 23.7002 29.8876C23.7002 30.2978 23.0166 30.3483 22.2929 29.9915C22.0948 29.8938 21.9167 29.8059 21.8973 29.7962C21.8778 29.7864 21.8619 30.0671 21.8619 30.4199C21.8619 31.0584 21.8626 31.0615 21.9782 31.1055C22.4136 31.271 23.3758 31.3448 23.8721 31.2506ZM34.3055 30.6583V30.1163H33.4806H32.6558V28.2544V26.3926H31.9252H31.1946V28.7965V31.2004H32.75H34.3055V30.6583ZM29.2149 21.1594C30.6667 21.0587 31.755 20.8686 32.7127 20.5484C33.6667 20.2294 34.2303 19.8434 34.3564 19.4227C34.4049 19.2606 34.4015 19.1991 34.3336 19.0213C34.0292 18.2243 32.3289 17.612 29.7308 17.3637C28.6194 17.2575 26.5982 17.2919 25.5385 17.4351C23.9215 17.6536 22.6093 18.0594 22.0259 18.5214C20.8456 19.456 22.0937 20.484 24.9964 20.9678C26.255 21.1776 27.8855 21.2517 29.2149 21.1594Z" fill="var(--item--01)"/>
</g>
<defs>
<clipPath id="clip0_252_4591">
<rect width="24" height="24" fill="var(--surface--00)" transform="translate(16 16)"/>
</clipPath>
</defs>
</svg>
