<svg width="56" height="56" viewBox="0 0 56 56" fill="none" xmlns="http://www.w3.org/2000/svg">
<rect width="56" height="56" rx="4" fill="var(--surface--00)"/>
<rect width="40" height="40" transform="translate(8 8)" fill="var(--surface--00)"/>
<path fill-rule="evenodd" clip-rule="evenodd" d="M17.4621 43.209L16 13.2364L34.0847 11.9446L33.7882 15.917L35.5162 14.6146L36.9561 15.917V11.7395L39.8806 11.5306V44.3055L17.4621 43.209ZM34.6758 24.2409L29.9679 24.3578C30.0556 21.9015 29.0029 21.6676 28.4181 21.6676C27.8625 21.6676 26.9268 21.8431 26.9268 23.1589C26.9268 24.4999 28.2942 25.2569 29.8993 26.1454C32.1794 27.4076 34.939 28.9353 34.939 32.7794C34.939 36.4638 32.0733 38.1599 28.4181 38.1599C24.6459 38.1599 21.3416 36.8732 21.7218 31.2296H26.6636C26.6051 33.5104 27.1022 34.3292 28.3596 34.3292C29.3246 34.3292 29.7632 33.7736 29.7632 32.8379C29.7632 31.4218 28.3384 30.5861 26.6994 29.6248C24.4801 28.3232 21.868 26.7912 21.868 23.2759C21.868 19.7669 24.1781 17.4276 28.3011 17.4276C32.4242 17.4276 34.7928 19.6792 34.6758 24.2409Z" fill="var(--item--01)"/>
</svg>
