<svg width="56" height="56" viewBox="0 0 56 56" fill="none" xmlns="http://www.w3.org/2000/svg">
<rect width="56" height="56" rx="4" fill="var(--surface--00)"/>
<mask id="mask0_252_4591" style="mask-type:luminance" maskUnits="userSpaceOnUse" x="16" y="20" width="24" height="16">
<path d="M16 20.8H40V35.2H16V20.8Z" fill="var(--item--01)"/>
</mask>
<g mask="url(#mask0_252_4591)">
<path fill-rule="evenodd" clip-rule="evenodd" d="M28 20.8C24.8 20.8 22.8 22.4 22 25.6C23.2 24 24.6 23.4 26.2 23.8C27.1129 24.028 27.7653 24.6907 28.4876 25.4235C29.664 26.6178 31.0258 28 34 28C37.2 28 39.2 26.4 40 23.2C38.8 24.8 37.4 25.4 35.8 25C34.8871 24.772 34.2347 24.1093 33.5124 23.3764C32.336 22.1822 30.9742 20.8 28 20.8ZM22 28C18.8 28 16.8 29.6 16 32.8C17.2 31.2 18.6 30.6 20.2 31C21.1129 31.2284 21.7653 31.8907 22.4876 32.6235C23.664 33.8178 25.0258 35.2 28 35.2C31.2 35.2 33.2 33.6 34 30.4C32.8 32 31.4 32.6 29.8 32.2C28.8871 31.972 28.2347 31.3093 27.5124 30.5764C26.336 29.3822 24.9742 28 22 28Z" fill="var(--item--01)"/>
</g>
</svg>
