<svg width="56" height="56" viewBox="0 0 56 56" fill="none" xmlns="http://www.w3.org/2000/svg">
<rect width="56" height="56" rx="4" fill="var(--surface--00)"/>
<rect width="40" height="40" transform="translate(8 8)" fill="var(--surface--00)"/>
<path fill-rule="evenodd" clip-rule="evenodd" d="M37.6562 16H18.3438C17.0493 16 16 17.0493 16 18.3438V37.6562C16 38.9507 17.0493 40 18.3438 40H37.6562C38.9507 40 40 38.9507 40 37.6562V18.3438C40 17.0493 38.9507 16 37.6562 16ZM35.755 19.12H30.685C30.0637 19.12 29.56 19.6237 29.56 20.245V28.495C29.56 29.1163 30.0637 29.62 30.685 29.62H35.755C36.3763 29.62 36.88 29.1163 36.88 28.495V20.245C36.88 19.6237 36.3763 19.12 35.755 19.12ZM20.245 19.12H25.315C25.9363 19.12 26.44 19.6237 26.44 20.245V34.495C26.44 35.1163 25.9363 35.62 25.315 35.62H20.245C19.6237 35.62 19.12 35.1163 19.12 34.495V20.245C19.12 19.6237 19.6237 19.12 20.245 19.12Z" fill="var(--item--01)"/>
</svg>
