<svg width="56" height="56" viewBox="0 0 56 56" fill="none" xmlns="http://www.w3.org/2000/svg">
<rect width="56" height="56" rx="4" fill="var(--surface--00)"/>
<rect width="40" height="40" transform="translate(8 8)" fill="var(--surface--00)"/>
<g clip-path="url(#clip0_252_4591)">
<path d="M16.6858 24.6548C16.6858 24.6548 16.1177 24.247 16.7994 23.7024L18.3878 22.288C18.3878 22.288 18.8423 21.8118 19.3229 22.2267L33.9807 33.2783V38.5778C33.9807 38.5778 33.9736 39.41 32.9012 39.318L16.6858 24.6548Z" fill="var(--item--01)"/>
<path d="M20.4638 28.0707L16.6857 31.4914C16.6857 31.4914 16.2975 31.779 16.6857 32.2929L18.4398 33.8818C18.4398 33.8818 18.8565 34.3274 19.4719 33.8205L23.4773 30.7959L20.4638 28.0707Z" fill="var(--item--01)"/>
<path d="M27.097 28.099L34.0259 22.8301L33.9809 17.5589C33.9809 17.5589 33.685 16.4085 32.6978 17.0072L23.4775 25.3643L27.097 28.099Z" fill="var(--item--01)"/>
<path d="M32.9016 39.325C33.304 39.7352 33.7917 39.6009 33.7917 39.6009L39.1913 36.9511C39.8825 36.482 39.7854 35.8997 39.7854 35.8997V20.0766C39.7854 19.3812 39.0705 19.1407 39.0705 19.1407L34.3906 16.8941C33.3679 16.2646 32.698 17.0072 32.698 17.0072C32.698 17.0072 33.5597 16.3896 33.981 17.5589V38.4811C33.981 38.6249 33.9503 38.7663 33.8887 38.8936C33.7656 39.1412 33.4981 39.3722 32.8566 39.2755L32.9016 39.325Z" fill="var(--item--01)"/>
</g>
<defs>
<clipPath id="clip0_252_4591">
<rect width="24" height="23.4706" fill="var(--item--01)" transform="translate(16 16.2647)"/>
</clipPath>
</defs>
</svg>
