<svg width="56" height="56" viewBox="0 0 56 56" fill="none" xmlns="http://www.w3.org/2000/svg">
<rect width="56" height="56" rx="4" fill="var(--surface--00)"/>
<rect width="40" height="40" transform="translate(8 8)" fill="var(--surface--00)"/>
<g clip-path="url(#clip0_252_4591)">
<path d="M28.0003 40C21.3502 40 15.9502 34.6998 16.0003 28C16.0505 21.3002 21.1003 16 28.0003 16C34.9008 16 40.0003 21.4 40.0003 28C40.0003 34.6 34.6505 40 28.0003 40ZM31.5502 38.1498L28.1503 28.9998L24.9502 38.35C27.3005 38.9003 28.9003 39.0498 31.5502 38.1498ZM23.2505 37.6502L18.1505 23.7002C17.4502 25.2002 17.3007 26.4503 17.2003 28C17.2505 32.0997 19.5502 35.8497 23.2505 37.6502ZM38.7507 28C38.8003 25.3502 37.6008 23.2502 37.5005 22.9502C37.6008 25.0005 37.3003 26.05 36.9507 27.2003L33.4505 37.2503C37.8507 34.6 38.7 30.6498 38.8003 28H38.7507ZM27.6507 27.55L25.9505 22.9L24.7003 22.8002C24.2007 22.45 24.5002 21.9002 24.8503 21.9002C27.1003 22.0502 28.35 22.0502 30.6005 21.9002C31.1508 21.9002 31.3003 22.7003 30.6502 22.8002L29.4502 22.9L33.3497 34.3998L35.1994 28.0998C35.2997 25.3502 34.5493 25.0502 33.5494 23.05C32.7493 21.4998 33.5996 19.9998 35.1497 19.9502C33.8991 18.7502 31.3496 17.2502 27.9994 17.2C24.6493 17.1498 21.0994 18.85 18.9994 22.0502L22.6997 21.9503C23.1497 22.1505 22.9496 22.8002 22.6997 22.8503L21.3999 22.9502L25.2999 34.6502L27.6507 27.55Z" fill="var(--item--01)"/>
</g>
<defs>
<clipPath id="clip0_252_4591">
<rect width="24" height="24" fill="var(--item--01)" transform="translate(16 16)"/>
</clipPath>
</defs>
</svg>
