<svg width="56" height="56" viewBox="0 0 56 56" fill="none" xmlns="http://www.w3.org/2000/svg">
<rect width="56" height="56" rx="4" fill="#0B0A0A"/>
<rect x="8" y="8" width="40" height="40" rx="2" fill="#0B0A0A"/>
<path fill-rule="evenodd" clip-rule="evenodd" d="M23.793 14.5041H27.1251H28H28.0001H28.875H32.2071C33.5549 14.5041 34.8475 15.0395 35.8006 15.9925C36.7537 16.9456 37.2891 18.2382 37.2891 19.586C37.2891 20.9339 36.7537 22.2265 35.8006 23.1795C35.5714 23.4088 35.3225 23.6138 35.058 23.7931C35.3225 23.9723 35.5714 24.1774 35.8006 24.4066C36.7537 25.3597 37.2891 26.6523 37.2891 28.0001C37.2891 29.3479 36.7537 30.6405 35.8006 31.5936C34.8475 32.5467 33.5549 33.0821 32.2071 33.0821C30.9788 33.0821 29.7964 32.6374 28.875 31.8373V32.2069V32.2071V33.0821V36.4139C28.875 37.7617 28.3396 39.0544 27.3865 40.0074C26.4335 40.9605 25.1409 41.4959 23.793 41.4959C22.4452 41.4959 21.1526 40.9605 20.1995 40.0074C19.2465 39.0544 18.7111 37.7617 18.7111 36.4139C18.7111 35.0661 19.2465 33.7735 20.1995 32.8204C20.4287 32.5913 20.6775 32.3862 20.942 32.207C20.6775 32.0278 20.4287 31.8228 20.1995 31.5936C19.2465 30.6405 18.7111 29.3479 18.7111 28.0001C18.7111 26.6523 19.2465 25.3597 20.1995 24.4066C20.4287 24.1774 20.6776 23.9723 20.9421 23.7931C20.6776 23.6138 20.4287 23.4088 20.1995 23.1795C19.2465 22.2265 18.7111 20.9339 18.7111 19.586C18.7111 18.2382 19.2465 16.9456 20.1995 15.9925C21.1526 15.0395 22.4452 14.5041 23.793 14.5041ZM27.125 31.3319V24.6681H23.793C22.9093 24.6681 22.0618 25.0192 21.437 25.644C20.8121 26.2689 20.4611 27.1164 20.4611 28.0001C20.4611 28.8838 20.8121 29.7313 21.437 30.3562C22.0563 30.9755 22.8943 31.3258 23.7695 31.332C23.7774 31.332 23.7852 31.3319 23.793 31.3319H27.125ZM23.7695 33.082C22.8943 33.0882 22.0563 33.4385 21.437 34.0579C20.8121 34.6827 20.4611 35.5302 20.4611 36.4139C20.4611 37.2976 20.8121 38.1451 21.437 38.77C22.0618 39.3948 22.9093 39.7459 23.793 39.7459C24.6767 39.7459 25.5242 39.3948 26.1491 38.77C26.774 38.1451 27.125 37.2976 27.125 36.4139V33.0821H23.793C23.7852 33.0821 23.7774 33.0821 23.7695 33.082ZM28.8751 16.2541H32.2071C33.0908 16.2541 33.9383 16.6051 34.5632 17.23C35.188 17.8548 35.5391 18.7023 35.5391 19.586C35.5391 20.4697 35.188 21.3172 34.5632 21.9421C33.9383 22.567 33.0908 22.918 32.2071 22.918H28.8751V16.2541ZM32.2071 24.6681C31.3234 24.6681 30.4759 25.0192 29.851 25.644C29.2262 26.2689 28.8751 27.1164 28.8751 28.0001C28.8751 28.8838 29.2262 29.7313 29.851 30.3562C30.4759 30.981 31.3234 31.3321 32.2071 31.3321C33.0908 31.3321 33.9383 30.981 34.5632 30.3562C35.188 29.7313 35.5391 28.8838 35.5391 28.0001C35.5391 27.1164 35.188 26.2689 34.5632 25.644C33.9383 25.0192 33.0908 24.6681 32.2071 24.6681ZM23.793 16.2541C22.9093 16.2541 22.0618 16.6051 21.437 17.23C20.8121 17.8548 20.4611 18.7023 20.4611 19.586C20.4611 20.4697 20.8121 21.3172 21.437 21.9421C22.0618 22.567 22.9093 22.918 23.793 22.918H27.125V16.2541H23.793Z" fill="#FCF1CC"/>
</svg>
